<?xml version="1.0" encoding="utf-8"?>
<!-- Generator: Adobe Illustrator 21.0.0, SVG Export Plug-In . SVG Version: 6.00 Build 0)  -->
<svg version="1.1" id="Layer_1" xmlns="http://www.w3.org/2000/svg" xmlns:xlink="http://www.w3.org/1999/xlink" x="0px" y="0px"
	 viewBox="0 0 1080 1920" style="enable-background:new 0 0 1080 1920;" xml:space="preserve">
<style type="text/css">
	.st0{clip-path:url(#SVGID_2_);fill:url(#SVGID_3_);}
	.st1{clip-path:url(#SVGID_2_);fill:url(#SVGID_4_);}
	.st2{opacity:0.43;clip-path:url(#SVGID_2_);}
	.st3{fill-rule:evenodd;clip-rule:evenodd;fill:url(#SVGID_5_);}
	.st4{clip-path:url(#SVGID_2_);fill-rule:evenodd;clip-rule:evenodd;fill:#FFFFFF;}
	.st5{opacity:0.36;clip-path:url(#SVGID_2_);}
	.st6{fill-rule:evenodd;clip-rule:evenodd;fill:url(#SVGID_6_);}
	.st7{clip-path:url(#SVGID_2_);}
	.st8{fill-rule:evenodd;clip-rule:evenodd;fill:#1F3376;}
</style>
<title>background-night</title>
<g>
	<defs>
		<rect id="SVGID_1_" y="-6.2" width="1080" height="1926.2"/>
	</defs>
	<clipPath id="SVGID_2_">
		<use xlink:href="#SVGID_1_"  style="overflow:visible;"/>
	</clipPath>
	
		<radialGradient id="SVGID_3_" cx="539.5206" cy="827.2149" r="1079.564" gradientTransform="matrix(1 0 0 1.0032 0 -6.1747)" gradientUnits="userSpaceOnUse">
		<stop  offset="0" style="stop-color:#5C99F5"/>
		<stop  offset="0.2163" style="stop-color:#4471B5"/>
		<stop  offset="0.4995" style="stop-color:#274169"/>
		<stop  offset="0.7338" style="stop-color:#121E30"/>
		<stop  offset="0.9069" style="stop-color:#05080D"/>
		<stop  offset="1" style="stop-color:#000000"/>
	</radialGradient>
	<path class="st0" d="M875.9-497.5c84.4,108.1,157,255.4,212.7,430.6v1689.2c-121.3,381.3-322.5,630.5-550.3,630.5
		c-226.3,0-426.4-246.1-548-623.3V-74.1c55.4-172.1,127.3-316.8,210.4-423.4H875.9z"/>
	<linearGradient id="SVGID_4_" gradientUnits="userSpaceOnUse" x1="540.6743" y1="2416.959" x2="540.6743" y2="-810.7352">
		<stop  offset="0" style="stop-color:#5C99F5"/>
		<stop  offset="0.1318" style="stop-color:#5892ED"/>
		<stop  offset="0.3371" style="stop-color:#4D7FD7"/>
		<stop  offset="0.589" style="stop-color:#3B60B3"/>
		<stop  offset="0.7054" style="stop-color:#3250A0"/>
		<stop  offset="0.7486" style="stop-color:#2D488F"/>
		<stop  offset="0.857" style="stop-color:#23356A"/>
		<stop  offset="0.9447" style="stop-color:#1C2A53"/>
		<stop  offset="1" style="stop-color:#1A264B"/>
	</linearGradient>
	<rect x="-8.5" y="-725.3" class="st1" width="1098.3" height="3142.3"/>
	<g class="st2">
		<linearGradient id="SVGID_5_" gradientUnits="userSpaceOnUse" x1="540.6743" y1="2231.3159" x2="540.6743" y2="1567.8175">
			<stop  offset="0.5892" style="stop-color:#000000"/>
			<stop  offset="0.629" style="stop-color:#040508"/>
			<stop  offset="0.6898" style="stop-color:#0E131D"/>
			<stop  offset="0.7641" style="stop-color:#1F2940"/>
			<stop  offset="0.849" style="stop-color:#374970"/>
			<stop  offset="0.9417" style="stop-color:#5571AE"/>
			<stop  offset="1" style="stop-color:#6A8CD8"/>
		</linearGradient>
		<path class="st3" d="M1089.8,1679.7v551.6H-8.5v-625.1c5.2-3.4,10.8-6.2,17-8.4c3.1,0.6,5.6,1.7,8.4,2.7c5.3-1.2,13,0.1,18.4-1.1
			c3.5-2,7.5-3.4,10.5-5.9c3.3-2.1,5.9-5.1,9.9-6.4c3.9-0.5,7.6-0.4,12.1,0c3.7,1.9,5.8,5.5,9.9,6.9c3.4-1.1,6.7-2.1,10.5-2.7
			c4,0.4,5.9,3,8.9,4.3c4-2.9,10.1-3.6,16.3-4.3c3.1-2.2,6.6-4,11.1-4.8c1.5-1.3,3-2.7,4.7-3.7c1.7-0.3,1.6,1,2.6,0
			c3.1-4,9.6-4.5,13.7-7.5c2.1,1.4,4.4-1.5,7.9-0.5c1.8-1.5,4.4-2.4,6.9-3.2c3.1-0.9,7-2.1,10.5-2.1c5.3-0.1,10.8,2.1,16.3,1.6
			c3.7-0.8,5.6-0.9,8.9-2.7c3.1,0.1,5-0.9,8.4-0.5c2.4,0.2,3.1,2.2,5.8,2.1c4,0.2,6.2-1.5,9.9-1.6c3.7,1.1,6.2,3.4,11.6,2.7
			c2.4,1.6,5.3,2.8,6.8,5.3c3.3,0.1,5.1,1.6,6.8,3.2c3.2,0.4,4.3,2.7,7.4,3.2c3,0.7,9.3-2,12.6,0.5c3.7-1.8,6.4-4.5,10.5-5.9
			c7.8-0.3,15.7-1.1,26.3-1.1c1.7,0.1,1.7-1.4,3.7-1.1c2.1-0.4,3,0.5,4.7,0.5c1.7-0.4,2.7-1.5,4.7-1.6c10.5-0.9,18.1,0.2,28.3,0.5
			c3.1,0.9,6.4,1.7,10,2.1c3.9,3.5,10.5,4.3,16.3,5.9c2.9,1.5,4.7,4.1,7.9,5.3c5-0.1,10.1,3.8,17.3,3.2c5.6,5.7,16.1,3.2,25.7,4.8
			c4-0.8,8.6-0.9,12.1-2.1c3.3-1.5,5.2-4.3,10-4.3c3.7,0,5.1,2.2,7.9,3.2c1.4-0.8,3.5-1.1,5.8-1.1c1.1,0.5,1.8,1.4,3.7,1.1
			c2.2,1.5,4.3,3.1,6.3,4.8c4.3,1.9,9.7,2.6,13.1,5.3c2.5-0.4,2.7-0.4,5.2,0c4.9,1.5,11.7,2.7,16.3,2.7c4.2,1.9,9,3.3,14.2,4.3
			c3.3,0.2,4.6-1.7,8.4-1.1c3.1,1.1,5.3,3.1,8.9,3.7c3.9-0.9,6.5-0.8,9.9-0.5c0,0,0.2-0.5,0.5-0.5c3.5,0,7.3,1.6,11.1,0.5
			c7.6,3.4,14.4,7.7,22.1,11.2c5.2-0.5,8.6,0.9,12.6,1.7c3.2,0,5.4-0.9,8.9-0.6c1.8,0.7,4.3,0.7,5.8,1.6c3.1-0.7,3.2,1.7,5.8,1.6
			c2.3,0.3,3.9-0.2,5.7-0.5c5.4,3.7,12.8,4.4,20.5,3.2c2.4,0.9,5.1,1.2,6.9,2.7c4-0.2,7,0.8,9.5,2.1c4.1-0.1,6.7,1.4,9.9,2.1
			c2.2,0.4,2.7-0.8,4.7-0.5c5.7,1.8,11.7,3.4,17.9,4.8c5.8,3.1,9.8,7.9,15.8,10.7c4.7,4.3,10.8,7.2,14.7,12.3
			c1.7,0.3,2.4-0.4,3.7-0.5c0.7,0.7,0.2,2.6,1.5,2.7c-0.2-1.1,2.4-1.7,2.7-0.5c2.6-0.2,3.3-2.3,6.3-2.1c0.8,1.5,1.8,2.8,3.7,3.2
			c2.3-0.8,3.4,0.3,4.7-1.1c1,0.2,1.7-1.8,3.7-2.1c1,1,0.8,2,2.6,1.1c0.5-0.9,1-1.8,2.6-1.6c0.1-1.6,1.4-1.8,1.6-3.2
			c1.7-1.5,1.8-4.6,5.3-4.3c2.8,0.1,1.2,4.8,4.2,4.8c1.2,0.8,2.5,1.8,4.7,1.6c3.5-0.3,3.8-4,7.3-4.3c1-2.7,2-5.5,4.7-6.4
			c0.6,0.8,0.7,2.2,1.6,2.7c-0.5-2.3,2.4-1.2,3.1-2.1c2,0.2,1-2.6,2.7-2.7c0.8,0.8,0.4,2.8,2.1,2.7c1.4-1.5,2.2-3.4,3.7-4.8
			c1.7,0.1,3.2,1.9,4.2,1.1c1.4-1.8,2.3-4,3.7-5.9c1.2,2,4.1,2.2,4.7,4.8c2,0.2,1.4-2.1,3.7-1.6c1.4,2.9,4.4,4,5.2,7.5
			c3.7,0.3,3.9,4.2,6.3,5.9c1.1-0.3,1,0.9,1.6,1.1c0.5,0.1,1.2-1.1,1.5,0c1.4,0.6,2.5,1.4,3.2,2.7c3.4-0.2,4.4,2.1,6.4,3.3
			c0.3,0.2,0.6,0.3,0.9,0.4c4.2,9.8,7.7,20.3,11.5,30.4c1.1,0.7,2.7,0.9,2.7,2.7c2-0.1,3.8,2.2,6.8,2.7c2,1.5,3,4.2,5.8,4.8
			c2-0.3,2.1-2.8,4.2-1.6c0.7-1.6,2.5-2.1,4.7-2.1c2.5,0.5,3.1,2.8,4.2,4.8c1.4,1.8,2.7,3.6,4.2,5.3c4.6,1.6,8.2,4.2,13.1,5.3
			c2.2,0.1,3-0.9,4.7,0c1.7-0.9,1.8-3.5,4.2-3.7c2.1,0.4,3-0.5,4.7-0.5c1.7-0.8,1.9-3.1,4.7-2.7c2.2-3,5.1-5.4,9.5-6.4
			c3.5,0.7,5.7,2.8,8.9,3.7c0.2-1.1,1.4,0.8,2.1-0.5c0.5-0.9,0.9-1.8,2.7-1.6c2,0.8,3,2.7,4.2,4.3c2.2,0.2,1.7-2.5,3.7-2.7
			c0.7,2.2,2.7,3,3.7,4.8c3.4-0.4,4.6,1.4,6.8,2.1c1.5,0.8,0.8,3.8,3.2,3.7c4.1-0.8,5.1-4.8,9.5-5.3c3.4,0.1,4.6,2.4,8.3,2.1
			c3.1-0.4,2.8-4.3,5.8-4.8c2.3,1.2,4.2,2.9,7.9,2.7c1.5-1.3,3.5-2,4.2-4.3c0.9-2,1.4-4.7,3.1-5.9c2,0.7,3.6-1.5,4.7,0
			c1.8,0,2.3,2.8,4.2,1.1c2.8-1.8,2.8-6.4,4.7-9.1c1.4-3.4,3.2-6.4,4.7-9.6c5-2.2,7.6-6.8,11-10.7c1.2,0.8,2.3,1.6,4.2,1.6
			c1.4-1.8,1.9-4.6,3.2-6.4c0.7,0.7,1.9,0.7,2.6,0c0.5-1.5,1.8,0.9,2.6-0.5c1.9-0.6,3.7-2.7,5.3-0.5c0.7-1.7,2.1-2.7,3.7-3.4
			c1.1-0.5,2.4-0.9,3.7-1.4c2-0.4,2.2,0.9,4.2,0.5c1-1.1,2.6-1.6,4.7-1.6c2.1-1.3,3.4-3.3,6.3-3.7c0.9,6,5.3,8.5,6.7,14
			c0.1,0.1,0.1,0.3,0.1,0.4c0.4,0.1,0.7,0.1,0.9-0.2c1.1-0.7,1.3-3.1,2.2-2c1.4-0.4,1.5-3.7,3.1-2.1c2.5,0.5,2.8,3.3,4.2,4.8
			c0.3,2.7,2.4,3.7,3.1,5.9c1.3-0.5,2-1.6,4.3-1.1c2,0.1,2.4,1.9,3.4,3.1c0.2,0.2,0.5,0.5,0.8,0.7c0.1-0.1,0.1-0.2,0.2-0.4
			C1088,1682,1088.5,1680.4,1089.8,1679.7z"/>
	</g>
	<path class="st4" d="M642.1,795.3c0,56.9-45.4,103.1-101.4,103.1c-56,0-101.5-46.1-101.5-103.1c0-56.9,45.4-103,101.5-103
		C596.7,692.3,642.1,738.4,642.1,795.3z"/>
	<g class="st5">
		<linearGradient id="SVGID_6_" gradientUnits="userSpaceOnUse" x1="540.6743" y1="2391.3796" x2="540.6743" y2="1658.6848">
			<stop  offset="0.3116" style="stop-color:#000000"/>
			<stop  offset="0.3782" style="stop-color:#040508"/>
			<stop  offset="0.4801" style="stop-color:#0E131D"/>
			<stop  offset="0.6046" style="stop-color:#1F2940"/>
			<stop  offset="0.747" style="stop-color:#374970"/>
			<stop  offset="0.9024" style="stop-color:#5571AE"/>
			<stop  offset="1" style="stop-color:#6A8CD8"/>
		</linearGradient>
		<path class="st6" d="M1089.8,1684.1v707.3H-8.5v-705.2c1.1,0.4,2.1,0.1,3.1-0.8c1.7,1.7,2.4,4.3,4.1,5.9c2.1-2.6,2-7.5,5.2-8.8
			c2.1,0.6,3.8,1.6,5.2,2.9c1.1,1.2,2.5,4.2,4.1,3c4.9-0.9,6.5-5.2,11.6-5.9c2.8,1.2,4.1,4,5.8,6.5c0.9,3.7,2.5,6.9,3.5,10.6
			c0.7,0.2,1.2,0.7,1.2,1.8c1.5,1.4,3.7,2.1,5.2,3.5c0.5,1,1.1,2.1,2.9,1.8c1.4,0.2,1.1,2,2.9,1.8c2.5,2.9,4.5,6.4,7.5,8.8h7.6
			c2.9,1.5,4.8,4.1,9.3,4.1c1.8,3.9,4.3,7,8.7,8.2c2,4.5,4.3,8.7,8.1,11.2c2.7-0.7,5-1.7,8.8-1.2c1.1,4.7,3,8.7,5.2,12.3
			c0.7,2.3,1.6,4.3,2.9,5.9c0.1,3,3.3,3,3.5,5.9c2.2,1.4,1.8-1.1,4-1.2c0.8,3.7,3.3,5.8,4.7,8.8c4.9-2.1,6.5,2.3,9.3,4.2
			c1.1-1.4,2.2-2.7,4-1.8c0.5,1.7,2.3,2,3.5,3c1.5,0.6,1.6,2.7,2.9,3.5c1.8,2.7,5.2,3.7,7.6,5.9c2.5-2,5.9-3,8.7-4.7
			c0.2,2.8,2.4,3.5,2.9,5.9c1.8-0.1,2.5-1.3,4.6-1.2c1.1,1.8,2.5,3.3,5.8,3c3-2.8,3.4-8.4,8.2-9.4c1.8,5.3,5.7,8.4,7.5,13.6
			c0.9,1.7,3-0.9,3.5,0.6c0.5,1.8,2,2.7,2.3,4.7c3-0.4,3.7-2.7,7-1.2c1.5,0.8,2.7,2,2.9,4.2c3-1.7,3.7,2,6.4,2.3
			c1.7-1,1.2-4.3,4.6-3.5c4.5-0.7,5,2.7,7.6,4.1c1.4-1.7,3-3.2,5.2-4.1c3.2,0.5,5.7,1.6,9.3,1.7c6-2.1,8.7-7.6,13.9-10.6
			c2.1-0.3,3.8-0.9,6.4-0.6c2.5-2.3,5.3-4.5,9.9-4.7c0.9-2,1.7-4.2,3.5-5.3c2.6,1.6,5.1-1.3,7-2.4c0.7,0.7,2,0.7,3.4,0.6
			c2.9-0.6,3.7-3.3,7-3.5c2.7,2.1,5,4.7,8.1,6.5c3,0.8,4-2.1,5.9-0.6c1.5,0.9,2.7,2.3,3.4,4.1c1.7,0.9,0.9,4.2,3.5,4.2
			c2.2-0.5,4.9-0.5,7-1.2c2.2,2.7,4.6,5.2,5.2,9.4c3.3,1.7,5.9,4.3,7.6,7.7c3.9-1.5,3,1.5,5.8,2.4c2.7-0.4,5.3-0.9,8.1-1.2
			c4.6-3.6,11.2-5.1,18-6.5c2.7-0.6,2,2.4,4.7,1.7c1.9-1.8,6.3-1,9.8-1.1c5.1-2,8.4-5.6,15.1-5.9c3.7-2.9,6.4-6.8,10.5-9.4
			c3.7-2.9,6.3-6.9,11-8.8c7.4-6.1,16.7-10.1,27.3-13c2.5-1.7,5.4-3.1,8.1-4.7c5.4-1.2,9.6-3.6,15.1-4.7c5.6-0.4,9.6,0.9,14.6,1.2
			c9-1.4,15.2-5.8,22.6-8.8c3.4-4.2,7.8-7.4,12.8-10c2.5-0.4,4.3-1.5,7-1.8c1.8-1.9,4.6-2.8,6.9-4.1c7.1-1.7,11.8-5.7,20.4-5.9
			c5.5,1.7,11.1,3.3,15.1,6.5c3.2,0.1,7.6,1.5,10.4,0c2,1.1,4.8,1.4,7.6,1.8c3.8,0.1,5.7-1.6,9.8-1.2c4.4-3.4,9.9-5.8,15.1-8.2
			c5.1-0.9,10.4-1.5,15-3c8.3-4.8,17.4-8.8,25.6-12.9c3-1.5,6-3.3,9.3-4.2c6.8-4.7,14.2-8.7,22.6-11.8c3.4,0.6,6.3,1.9,9.3,2.9
			c5.9-1.3,14.4,0.1,20.3-1.2c3.9-2.1,8.3-3.7,11.7-6.5c3.7-2.4,6.4-5.6,11-7.1c4.3-0.5,8.3-0.4,13.4,0c4.1,2.1,6.4,6.1,11,7.7
			c3.7-1.1,7.3-2.3,11.6-3c4.4,0.5,6.4,3.3,9.9,4.7c4.4-3.2,11.1-4,18-4.7c3.4-2.4,7.2-4.4,12.2-5.3c1.7-1.4,3.3-3,5.2-4.2
			c1.8-0.3,1.8,1.1,2.9,0c3.4-4.4,10.6-4.9,15.1-8.2c1.9,1.2,4-0.8,6.8-0.8c0.6-0.1,1.2,0.1,1.9,0.2c2-1.7,4.9-2.7,7.6-3.6
			c3.5-1.1,7.7-2.3,11.6-2.4c5.8-0.1,12,2.3,18,1.8c4.1-0.9,6.2-1.1,9.9-3c3.4,0.1,5.6-1,9.3-0.6c2.6,0.3,3.4,2.4,6.4,2.4
			c4.4,0.2,6.8-1.7,11-1.8c4.1,1.2,6.8,3.7,12.8,3c2.7,1.8,5.9,3.1,7.5,5.9c3.6,0.1,5.6,1.8,7.6,3.6c3.5,0.4,4.7,3,8.1,3.5
			c3.3,0.8,10.4-2.1,13.9,0.6c4-2,7.1-5,11.6-6.5c8.7-0.4,17.5-1.2,29-1.2c1.8,0.1,2-1.5,4.1-1.1c2.3-0.4,3.3,0.5,5.2,0.5
			c1.8-0.4,2.9-1.7,5.2-1.7c11.3-1,19.6,0.2,30.5,0.5c0.2,0.1,0.5,0.1,0.8,0.1c3.4,1,7.1,1.8,11,2.3c3.4,3,8.6,4.2,13.8,5.5
			c0.4,0.1,0.7,0.1,1.1,0.2c1.1,0.2,2.1,0.5,3.1,0.8c3.2,1.7,5.2,4.6,8.7,5.9c2.7-0.1,5.4,0.9,8.5,1.9c0.4,0.1,0.7,0.2,1,0.3
			C1088.2,1683.6,1089,1683.9,1089.8,1684.1z"/>
	</g>
	<g class="st7">
		<path class="st8" d="M1089.8,1980.6V2417H-8.5v-562.6c2.2-0.9,4.7-1.5,7.3-2c2.6-2.3,5-4.6,8.2-6.4c2.8-0.5,2.8,1.7,4.5,0
			c5.3-6.9,16.5-7.8,23.5-12.9c3.5,2.3,7.6-2.7,13.5-0.9c3.1-2.6,7.6-4.2,11.8-5.5c5.4-1.7,12.1-3.6,18.1-3.7
			c9.1-0.2,18.6,3.5,28,2.7c6.3-1.4,9.7-1.6,15.4-4.6c5.3,0.1,8.7-1.6,14.5-0.9c4.1,0.4,5.3,3.7,9.9,3.7c7,0.4,10.6-2.7,17.2-2.7
			c6.3,1.8,10.6,5.8,19.9,4.6c4.2,2.8,9.2,4.8,11.8,9.2c5.6,0.2,8.8,2.7,11.8,5.5c5.4,0.6,7.4,4.7,12.7,5.5
			c5.1,1.2,16.1-3.4,21.7,0.9c6.3-3.1,11.1-7.7,18.1-10.1c13.5-0.5,27.1-1.8,45.3-1.8c2.8,0.2,3-2.4,6.3-1.8
			c3.6-0.6,5.1,0.9,8.2,0.9c2.8-0.8,4.6-2.7,8.1-2.8c18-1.5,31.2,0.4,48.9,0.9c5.4,1.5,11.1,2.8,17.2,3.6c6.7,6.1,18.1,7.4,28,10.1
			c5,2.6,8.1,7.1,13.5,9.2c8.6-0.2,17.5,6.5,29.9,5.5c9.6,9.8,27.7,5.5,44.3,8.2c6.8-1.4,14.8-1.5,20.8-3.7
			c5.6-2.6,8.9-7.5,17.2-7.4c6.3,0,8.9,3.9,13.5,5.5c2.5-1.5,6-1.9,10-1.8c2,0.8,3.1,2.4,6.3,1.8c3.7,2.7,7.3,5.5,10.8,8.3
			c7.4,3.2,16.7,4.5,22.7,9.1c4.4-0.5,4.6-0.5,9.1,0c8.2,2.6,20,4.6,28,4.6c7.3,3.3,15.4,5.7,24.4,7.4c5.7,0.3,8-2.9,14.4-1.8
			c5.4,1.9,9.1,5.5,15.4,6.4c6.7-1.6,11.3-1.3,17.2-0.9c0-0.2,0.3-0.9,0.9-0.9c6,0,12.6,2.8,19,0.9c13.1,5.9,24.8,13.4,38,19.3
			c9-0.9,14.8,1.4,21.7,2.7c5.4,0.1,9.3-1.5,15.4-0.9c3,1.2,7.3,1.1,9.9,2.7c5.4-1.2,5.6,2.9,9.9,2.8c4.1,0.4,6.8-0.5,10-0.9
			c9.2,6.2,22,7.6,35.3,5.5c4,1.4,8.9,2,11.8,4.6c7-0.4,12,1.2,16.3,3.7c7.2-0.2,11.6,2.3,17.2,3.6c3.7,0.8,4.7-1.4,8.2-0.9
			c9.9,3.1,20.2,5.9,30.8,8.2c9.9,5.3,16.8,13.6,27.2,18.4c8,7.4,18.5,12.4,25.3,21.1c3,0.5,4.2-0.6,6.3-0.9
			c1.2,1.1,0.4,4.5,2.7,4.6c-0.5-1.8,4.1-3,4.5-0.9c4.6-0.3,5.8-4,10.9-3.7c1.4,2.6,3.1,4.8,6.3,5.5c4-1.3,5.9,0.5,8.2-1.8
			c1.8,0.3,3-3,6.3-3.7c1.8,1.7,1.4,3.3,4.5,1.8c0.8-1.6,1.7-3.2,4.6-2.8c0-2.7,2.4-3.1,2.7-5.5c3-2.5,3-8,9.1-7.3
			c4.9,0.2,2.1,8.2,7.3,8.2C1089.4,1980.3,1089.6,1980.4,1089.8,1980.6z"/>
	</g>
</g>
</svg>
