<?xml version="1.0" encoding="utf-8"?>
<!-- Generator: Adobe Illustrator 21.0.0, SVG Export Plug-In . SVG Version: 6.00 Build 0)  -->
<svg version="1.1" id="Layer_1" xmlns="http://www.w3.org/2000/svg" xmlns:xlink="http://www.w3.org/1999/xlink" x="0px" y="0px"
	 viewBox="0 0 1080 1080" style="enable-background:new 0 0 1080 1080;" xml:space="preserve">
<style type="text/css">
	.st0{fill:#0060A8;}
	.st1{fill:#0080E0;}
	.st2{fill:#FFFFFF;}
	.st3{fill:#003556;}
</style>
<title>Characters</title>
<g>
	<g>
		<path class="st0" d="M860.5,681.5c0,121.6-67.7,227.4-167.5,281.7c169.1-194.7,122.8-425,33.2-607.6
			C796.8,473.8,860.5,602.5,860.5,681.5z"/>
		<path class="st1" d="M693,963.2c-45.3,24.7-97.2,38.7-152.4,38.8H540c-177,0-320.5-143.5-320.5-320.5c0-139.9,200-435.9,284-553.6
			c21.2-29.8,35.1-48.1,36.4-49.7C540,78,540,78,540,78s0.6,0.8,1.8,2.3c13.7,18.1,103.6,139.9,184.4,275.3
			C815.8,538.2,862.1,768.4,693,963.2z"/>
	</g>
	<g>
		<g>
			<ellipse class="st2" cx="407.7" cy="675.2" rx="40.4" ry="76.8"/>
			<ellipse class="st3" cx="402.1" cy="692.5" rx="16.9" ry="33.1"/>
			<ellipse class="st2" cx="676.3" cy="675.2" rx="40.4" ry="76.8"/>
			<ellipse class="st3" cx="670.7" cy="692.5" rx="16.9" ry="33.1"/>
		</g>
	</g>
	<path class="st2" d="M513.1,188.8c0,0-137.9,191.6-146.4,236.7"/>
</g>
</svg>
