<?xml version="1.0" encoding="utf-8"?>
<!-- Generator: Adobe Illustrator 21.0.0, SVG Export Plug-In . SVG Version: 6.00 Build 0)  -->
<svg version="1.1" id="Layer_1" xmlns="http://www.w3.org/2000/svg" xmlns:xlink="http://www.w3.org/1999/xlink" x="0px" y="0px"
	 viewBox="0 0 177 525" style="enable-background:new 0 0 177 525;" xml:space="preserve">
<style type="text/css">
	.st0{fill:url(#SVGID_1_);}
	.st1{fill:#FFFFFF;}
	.st2{opacity:0.17;fill:#F5F5F5;enable-background:new    ;}
	.st3{opacity:0.31;}
	.st4{opacity:0.2;fill:#FFFFFF;enable-background:new    ;}
	.st5{fill:url(#SVGID_2_);}
	.st6{fill:url(#SVGID_3_);}
</style>
<title>Background-Sun</title>
<g>
	<g id="Layer_1_1_">
		
			<linearGradient id="SVGID_1_" gradientUnits="userSpaceOnUse" x1="26.0745" y1="90.7481" x2="126.0745" y2="321.4181" gradientTransform="matrix(1 0 0 -1 0 526)">
			<stop  offset="1.000000e-02" style="stop-color:#D6FFFF"/>
			<stop  offset="0.39" style="stop-color:#BDFFFF"/>
			<stop  offset="1" style="stop-color:#00C2FF"/>
		</linearGradient>
		<rect y="130" class="st0" width="177" height="322.5"/>
		<circle class="st1" cx="86.7" cy="305.1" r="16.7"/>
		<polygon class="st1" points="54.2,381.3 62.4,382.4 67.6,388.5 77.2,386.9 84.5,393.6 75,389 68.2,389.6 60.9,383.6 		"/>
		<polygon class="st1" points="14.9,285.2 19.2,285.8 22,289 27,288.1 30.8,291.7 25.9,289.3 22.2,289.6 18.4,286.4 		"/>
		<polygon class="st1" points="14.9,333.5 23.4,329.6 32.1,332.4 40.3,325.2 51.5,327.3 39.6,328.5 33.3,333.2 22.8,331.7 		"/>
		<polygon class="st1" points="136.8,338.1 140.1,336.2 143.8,336.9 146.8,333.6 151.4,333.9 146.6,335 144.3,337.1 139.9,337 		"/>
		<polygon class="st1" points="121.7,427.8 125,425.8 128.6,426.6 131.7,423.2 136.3,423.6 131.5,424.6 129.2,426.8 124.8,426.7 		
			"/>
		<path class="st2" d="M9,328.5c0,0,15.4-4.9,27.9,3.6s16,6.9,24.7,7.4S84.1,347.9,72,354s-13.8-0.7-25.4,6s-12.9,9.1-33.4,1.8
			S9,328.5,9,328.5z"/>
		<polygon class="st1" points="21.9,185.5 30.4,181.6 39.1,184.4 47.3,177.2 58.5,179.3 46.6,180.5 40.3,185.2 29.8,183.7 		"/>
		<polygon class="st1" points="143.8,190.1 147.1,188.2 150.8,188.9 153.8,185.6 158.4,185.9 153.6,187 151.3,189.1 146.9,189 		"/>
		<path class="st2" d="M16,180.6c0,0,15.4-4.9,27.9,3.6s16,6.9,24.7,7.4S91.1,199.9,79,206s-13.8-0.7-25.4,6s-12.9,9.1-33.4,1.8
			S16,180.6,16,180.6z"/>
		<g class="st3">
			<path class="st1" d="M159.4,402c0,0-57.9-2.6-76.8-5.1l10.9-0.2c0,0,6.1-14.4,15.6-14s13.2,8.9,13.2,8.9s6.3-2,8.4,5.4
				c0,0,4.2-4.4,7.5,2.3L159.4,402z"/>
			<path class="st1" d="M82.7,396.9c0,0,18.1-0.3,35.2,0.8s41.5,4.3,41.5,4.3S104.1,399.7,82.7,396.9z"/>
			<path class="st4" d="M124.8,397c0,0-3.2-13.4-14.5-14.2s-16.7,13.8-16.7,13.8S116.7,398.4,124.8,397z"/>
			<path class="st4" d="M123.1,391.7c0,0,6.5-1.9,8,6.8c-1.4-0.1-2.7-0.4-4-0.8C126.1,397.1,123.1,391.7,123.1,391.7z"/>
			<path class="st4" d="M131,396.7c0,0,2.1-1.6,4.1-0.8c1.3,0.6,2.4,1.8,2.9,3.1c-1.2,0-2.5-0.1-3.7-0.3
				C133,398.5,131.9,397.7,131,396.7z"/>
			<path class="st4" d="M95.1,393.6c0,0,4.1,1.5,16.1,3s13-1.3,13-1.3l-1.8-3.8h0.2c0,0,2.7,4.8,4.7,5.7s10.9,2,10.9,2l-5.4-0.2
				c0,0-25.7-2.3-39.2-2.3L95.1,393.6z"/>
		</g>
		<g class="st3">
			<path class="st1" d="M94.1,444.3c0,0-57.9,1.6-76.9,0.6l10.9-1c0,0,5-14.8,14.5-15.1s13.9,7.9,13.9,7.9s6.2-2.5,8.7,4.8
				c0,0,3.8-4.7,7.6,1.7L94.1,444.3z"/>
			<path class="st1" d="M17.2,444.9c0,0,18-1.7,35.2-1.8s41.8,1.2,41.8,1.2S38.8,446.2,17.2,444.9z"/>
			<path class="st4" d="M59.2,441.9c0,0-4.2-13.1-15.5-13.1s-15.7,15-15.7,15S51.2,443.9,59.2,441.9z"/>
			<path class="st4" d="M57.1,436.7c0,0,6.3-2.4,8.5,6.2c-1.4,0-2.7-0.2-4-0.5C60.5,441.9,57.1,436.7,57.1,436.7z"/>
			<path class="st4" d="M65.4,441.2c0,0,1.9-1.8,4.1-1.1c1.4,0.5,2.5,1.6,3.1,2.9c-1.2,0.1-2.5,0.1-3.7,0
				C67.5,442.8,66.3,442.1,65.4,441.2z"/>
			<path class="st4" d="M29.3,440.7c0,0,4.2,1.2,16.3,1.8s12.9-2.2,12.9-2.2l-2.1-3.6h0.2c0,0,3.1,4.6,5.1,5.3s11,1.2,11,1.2
				l-5.4,0.2c0,0-25.8-0.4-39.3,0.6L29.3,440.7z"/>
		</g>
		<g class="st3">
			<path class="st1" d="M110.4,391.4l-33.7-1.2l6.7-0.8c0,0,4.7-6.5,8.6-3.8c0,0,0.8-4.3,5.2-4.7s5.8,9.6,5.8,9.6s0.5-1.2,1.9,0
				L110.4,391.4z"/>
			<path class="st1" d="M110.4,391.4c0,0-18.7-2.9-33.5-1.2L110.4,391.4z"/>
			<path class="st4" d="M95.9,388.9c0,0-2.5-4-6.3-3.7s-6.2,4.3-6.2,4.3S92.4,388.8,95.9,388.9z"/>
			<path class="st4" d="M92.3,385.2c0,0,1.9-4.6,5.5-4s4.9,7.6,5,8.9c0,0-3.8-0.3-4.9-0.9S94,385.6,92.3,385.2z"/>
		</g>
		<g class="st3">
			<path class="st1" d="M175.4,174c0,0-57.9-2.6-76.8-5.1l10.9-0.2c0,0,6.1-14.4,15.6-14s13.2,8.9,13.2,8.9s6.3-2,8.4,5.4
				c0,0,4.2-4.4,7.5,2.3L175.4,174z"/>
			<path class="st1" d="M98.7,168.9c0,0,18.1-0.3,35.2,0.8s41.5,4.3,41.5,4.3S120.1,171.7,98.7,168.9z"/>
			<path class="st4" d="M140.8,169c0,0-3.2-13.4-14.5-14.2s-16.7,13.8-16.7,13.8S132.7,170.4,140.8,169z"/>
			<path class="st4" d="M139.1,163.7c0,0,6.5-1.9,8,6.8c-1.4-0.1-2.7-0.4-4-0.8C142.1,169.1,139.1,163.7,139.1,163.7z"/>
			<path class="st4" d="M147,168.7c0,0,2.1-1.6,4.1-0.8c1.3,0.6,2.4,1.8,2.9,3.1c-1.2,0-2.5-0.1-3.7-0.3
				C149,170.5,147.9,169.7,147,168.7z"/>
			<path class="st4" d="M111.1,165.6c0,0,4.1,1.5,16.1,3s13-1.3,13-1.3l-1.8-3.8h0.2c0,0,2.7,4.8,4.7,5.7s10.9,2.1,10.9,2.1
				l-5.4-0.2c0,0-25.7-2.3-39.2-2.3L111.1,165.6z"/>
		</g>
		<g class="st3">
			<path class="st1" d="M126.4,163.4l-33.7-1.2l6.7-0.8c0,0,4.7-6.5,8.6-3.8c0,0,0.8-4.3,5.2-4.7s5.8,9.6,5.8,9.6s0.5-1.2,1.9,0
				L126.4,163.4z"/>
			<path class="st1" d="M126.4,163.4c0,0-18.7-2.9-33.5-1.2L126.4,163.4z"/>
			<path class="st4" d="M111.9,160.9c0,0-2.5-4-6.3-3.7s-6.2,4.3-6.2,4.3S108.4,160.8,111.9,160.9z"/>
			<path class="st4" d="M108.3,157.2c0,0,1.9-4.6,5.5-4s4.9,7.6,5,8.9c0,0-3.8-0.3-4.9-0.9S110,157.6,108.3,157.2z"/>
		</g>
		<g class="st3">
			<path class="st1" d="M35.3,357.5L60,358l-4.8-0.8c0,0-3.2-5-6.2-3.2c-0.3-1.9-1.7-3.4-3.6-3.6c-3.2-0.4-4.7,6.8-4.7,6.8
				s-0.3-0.9-1.4-0.1L35.3,357.5z"/>
			<path class="st1" d="M35.3,357.5c0,0,13.8-1.4,24.6,0.5L35.3,357.5z"/>
			<path class="st4" d="M46,356.3c0,0,2-2.8,4.8-2.4s4.4,3.4,4.4,3.4S48.6,356.3,46,356.3z"/>
			<path class="st4" d="M48.8,353.7c0,0-1.2-3.4-3.8-3.1s-3.9,5.4-4,6.3c1.2,0,2.5-0.2,3.7-0.5C45.4,356.1,47.6,353.9,48.8,353.7z"
				/>
		</g>
		
			<linearGradient id="SVGID_2_" gradientUnits="userSpaceOnUse" x1="-3179.5" y1="980" x2="-3179.5" y2="913.99" gradientTransform="matrix(-1 0 0 1 -3091 -889)">
			<stop  offset="0" style="stop-color:#00C2FF"/>
			<stop  offset="1" style="stop-color:#FFFFFF"/>
		</linearGradient>
		<rect y="23" class="st5" width="177" height="109"/>
		
			<linearGradient id="SVGID_3_" gradientUnits="userSpaceOnUse" x1="-1175.5" y1="810.54" x2="-1175.5" y2="766.33" gradientTransform="matrix(1 0 0 -1 1264 1290)">
			<stop  offset="0" style="stop-color:#D1FFFF"/>
			<stop  offset="1" style="stop-color:#FFFFFF"/>
		</linearGradient>
		<rect y="452" class="st6" width="177" height="73"/>
	</g>
</g>
</svg>
