<?xml version="1.0" encoding="utf-8"?>
<!-- Generator: Adobe Illustrator 21.0.0, SVG Export Plug-In . SVG Version: 6.00 Build 0)  -->
<svg version="1.1" id="Layer_1" xmlns="http://www.w3.org/2000/svg" xmlns:xlink="http://www.w3.org/1999/xlink" x="0px" y="0px"
	 viewBox="0 0 1080 1920" style="enable-background:new 0 0 1080 1920;" xml:space="preserve">
<style type="text/css">
	.st0{clip-path:url(#SVGID_2_);fill:url(#SVGID_3_);}
	.st1{clip-path:url(#SVGID_2_);fill:url(#SVGID_4_);}
	.st2{clip-path:url(#SVGID_2_);fill:url(#SVGID_5_);}
	.st3{clip-path:url(#SVGID_2_);fill:url(#SVGID_6_);}
	.st4{clip-path:url(#SVGID_2_);fill:url(#SVGID_7_);}
	.st5{clip-path:url(#SVGID_2_);fill:url(#SVGID_8_);}
	.st6{clip-path:url(#SVGID_2_);fill:url(#SVGID_9_);}
	.st7{clip-path:url(#SVGID_2_);fill:url(#SVGID_10_);}
	.st8{clip-path:url(#SVGID_2_);fill:url(#SVGID_11_);}
	.st9{clip-path:url(#SVGID_2_);fill:url(#SVGID_12_);}
	.st10{clip-path:url(#SVGID_2_);fill:url(#SVGID_13_);}
	.st11{clip-path:url(#SVGID_2_);fill:url(#SVGID_14_);}
	.st12{clip-path:url(#SVGID_2_);fill:url(#SVGID_15_);}
	.st13{clip-path:url(#SVGID_2_);fill:url(#SVGID_16_);}
	.st14{clip-path:url(#SVGID_2_);fill:url(#SVGID_17_);}
</style>
<title>softsnow</title>
<g>
	<defs>
		<rect id="SVGID_1_" x="-27.5" y="-24.4" width="1133.8" height="1970.5"/>
	</defs>
	<clipPath id="SVGID_2_">
		<use xlink:href="#SVGID_1_"  style="overflow:visible;"/>
	</clipPath>
	<linearGradient id="SVGID_3_" gradientUnits="userSpaceOnUse" x1="395.1588" y1="-405.8295" x2="395.1588" y2="1920.1454">
		<stop  offset="0" style="stop-color:#98F4FF"/>
		<stop  offset="1" style="stop-color:#CEFBFF"/>
	</linearGradient>
	<rect x="-1560.7" y="-474.8" class="st0" width="3911.8" height="2669.4"/>
	<linearGradient id="SVGID_4_" gradientUnits="userSpaceOnUse" x1="395.1588" y1="-334.6105" x2="395.1588" y2="513.3471">
		<stop  offset="0" style="stop-color:#5DD6FF"/>
		<stop  offset="0.1539" style="stop-color:#66D9FF;stop-opacity:0.8461"/>
		<stop  offset="0.4029" style="stop-color:#7EE1FF;stop-opacity:0.5971"/>
		<stop  offset="0.7138" style="stop-color:#A4EDFF;stop-opacity:0.2862"/>
		<stop  offset="1" style="stop-color:#CEFBFF;stop-opacity:0"/>
	</linearGradient>
	<path class="st1" d="M2351.1,266.8c-3.1,2.3-6,4.8-8.8,7.6c-14.7,14.7-22.9,33.4-24.7,52.6c-27-7.7-55.5-11.9-84.9-11.9
		c-67.4,0-129.7,21.6-180.5,58.1c-4.2-10.4-10.5-20.1-18.9-28.5c-33.4-33.4-87.6-33.4-121,0c-3,3-5.6,6.2-8.1,9.5
		c-71.9-120.9-203.8-202-354.8-202c-30.1,0-59.5,3.3-87.8,9.5c-32.3-195.4-202.1-344.5-406.8-344.5c-1.7,0-3.4,0.1-5,0.1
		c-1.7,0-3.4-0.1-5-0.1c-204.7,0-374.5,149.1-406.8,344.5c-28.3-6.1-57.7-9.5-87.8-9.5c-151,0-282.9,81.1-354.8,202
		c-2.5-3.3-5.1-6.5-8.1-9.5c-33.4-33.4-87.6-33.4-121,0c-8.4,8.4-14.7,18.1-18.9,28.5C-3.7,336.7-66,315.1-133.4,315.1
		c-29.5,0-57.9,4.2-84.9,11.9c-1.8-19.2-10-37.9-24.7-52.6c-16.7-16.7-38.7-25.1-60.6-25c0-1.4,0-2.7-0.1-4.1
		c-6.8-270.1-410.3-270.1-417.1,0c0,1.4-0.1,2.7-0.1,4.1c-21.9,0-43.9,8.3-60.6,25c-14.7,14.7-22.9,33.4-24.7,52.6
		c-27-7.7-55.5-11.9-84.9-11.9c-67.4,0-129.7,21.6-180.5,58.1c-4.2-10.4-10.5-20.1-18.9-28.5c-33.4-33.4-87.6-33.4-121,0
		c-3,3-5.6,6.2-8.1,9.5c-69.7-117.3-195.9-197-341.1-201.8v-627.2h3911.8V266.8z"/>
	<linearGradient id="SVGID_5_" gradientUnits="userSpaceOnUse" x1="395.1588" y1="956.2242" x2="395.1588" y2="1996.8539">
		<stop  offset="0" style="stop-color:#FFFFFF"/>
		<stop  offset="1" style="stop-color:#CEFBFF;stop-opacity:0"/>
	</linearGradient>
	<path class="st2" d="M2351.1,1384.8c-3.1,2.3-6,4.8-8.8,7.6c-14.7,14.7-22.9,33.4-24.7,52.6c-27-7.7-55.5-11.9-84.9-11.9
		c-67.4,0-129.7,21.6-180.5,58.1c-4.2-10.4-10.5-20.1-18.9-28.5c-33.4-33.4-87.6-33.4-121,0c-3,3-5.6,6.2-8.1,9.5
		c-71.9-120.9-203.8-202-354.8-202c-30.1,0-59.5,3.3-87.8,9.5c-32.3-195.4-202.1-344.5-406.8-344.5c-1.7,0-3.4,0.1-5,0.1
		c-1.7,0-3.4-0.1-5-0.1c-204.7,0-374.5,149.1-406.8,344.5c-28.3-6.1-57.7-9.5-87.8-9.5c-151,0-282.9,81.1-354.8,202
		c-2.5-3.3-5.1-6.5-8.1-9.5c-33.4-33.4-87.6-33.4-121,0c-8.4,8.4-14.7,18.1-18.9,28.5c-50.8-36.5-113.1-58.1-180.5-58.1
		c-29.5,0-57.9,4.2-84.9,11.9c-1.8-19.2-10-37.9-24.7-52.6c-16.7-16.7-38.7-25.1-60.6-25c0-1.4,0-2.7-0.1-4.1
		c-6.8-270.1-410.3-270.1-417.1,0c0,1.4-0.1,2.7-0.1,4.1c-21.9,0-43.9,8.3-60.6,25c-14.7,14.7-22.9,33.4-24.7,52.6
		c-27-7.7-55.5-11.9-84.9-11.9c-67.4,0-129.7,21.6-180.5,58.1c-4.2-10.4-10.5-20.1-18.9-28.5c-33.4-33.4-87.6-33.4-121,0
		c-3,3-5.6,6.2-8.1,9.5c-69.7-117.3-195.9-197-341.1-201.8v888.9h3911.8V1384.8z"/>
	<linearGradient id="SVGID_6_" gradientUnits="userSpaceOnUse" x1="678.1888" y1="1799.5498" x2="678.1888" y2="1723.2086">
		<stop  offset="0" style="stop-color:#004B1F"/>
		<stop  offset="1" style="stop-color:#388537"/>
	</linearGradient>
	<path class="st3" d="M725.7,1790.1c-1.6-1.2-2.4-1.9-4-3.1c-7.8-6.6-13-13.6-17.7-21c1.6,0.2,3.6,0.2,5.6-0.2
		c5.4-1,9.4-4.2,9.4-6.9c0-0.3-0.1-0.6-0.4-0.8c-1.4-1.1-2-1.6-3.4-2.7c-9.2-7.8-14.2-16.2-19.7-25.5c1.6,0.9,4.1,1.2,6.8,0.7
		c4.2-0.8,7.3-3.2,7.2-5.3c0-0.2-0.1-0.5-0.3-0.6c-1.1-0.8-1.6-1.2-2.6-2.1c-7.1-6-11-12.5-15.2-19.7c1.2,0.6,3.1,0.9,5.2,0.5
		c3.2-0.6,5.6-2.5,5.6-4.1c0-0.2-0.1-0.3-0.2-0.5c-0.8-0.6-1.2-0.9-2-1.6c-8.2-7-15.2-14.7-21.5-23.9c-0.2-0.4-0.8-0.4-1,0
		c-6.2,9.2-13.2,17-21.4,24c-0.8,0.6-1.2,1-2,1.6c-0.1,0.1-0.2,0.3-0.2,0.5c0,1.6,2.4,3.5,5.6,4.1c2,0.4,3.8,0.1,5-0.4
		c-4.1,7.2-7.9,13.6-15,19.7c-1,0.8-1.5,1.2-2.6,2.1c-0.2,0.1-0.3,0.4-0.3,0.6c0,2.1,3.1,4.5,7.2,5.3c2.7,0.5,5.1,0.2,6.7-0.6
		c-5.3,9.3-10.3,17.7-19.5,25.5c-1.3,1.1-2,1.6-3.4,2.7c-0.2,0.2-0.4,0.5-0.4,0.8c0,2.7,4,5.8,9.4,6.8c2,0.4,3.9,0.4,5.5,0.1
		c-4.6,7.5-9.8,14.4-17.6,21.1c-1.6,1.3-2.4,1.9-4,3.1c-0.3,0.2-0.5,0.6-0.5,0.9c0,3.2,4.7,6.9,11.1,8c4.8,0.9,9.1,0.1,11.3-1.7
		c0.7-0.6,1.9-0.4,2.5,0.3c1.8,2.2,5.9,4.1,10.7,4.4c4.8,0.3,9.1-1,11.1-3.1c0.7-0.7,1.9-0.7,2.5,0c2,2,6.2,3.3,11.1,3
		c4.8-0.3,8.9-2.1,10.7-4.4c0.6-0.8,1.8-0.9,2.5-0.3c2.2,1.7,6.5,2.5,11.3,1.6c6.3-1.2,11.1-4.9,11-8.1
		C726.2,1790.7,726,1790.4,725.7,1790.1z"/>
	<linearGradient id="SVGID_7_" gradientUnits="userSpaceOnUse" x1="825.3643" y1="1834.2501" x2="825.3643" y2="1757.9088">
		<stop  offset="0" style="stop-color:#004B1F"/>
		<stop  offset="1" style="stop-color:#388537"/>
	</linearGradient>
	<path class="st4" d="M872.9,1824.8c-1.6-1.2-2.4-1.9-4-3.1c-7.8-6.6-13-13.6-17.7-21c1.6,0.2,3.6,0.2,5.6-0.2
		c5.4-1,9.4-4.2,9.4-6.9c0-0.3-0.1-0.6-0.4-0.8c-1.4-1.1-2-1.6-3.4-2.7c-9.2-7.8-14.2-16.2-19.7-25.5c1.6,0.9,4.1,1.2,6.8,0.7
		c4.2-0.8,7.3-3.2,7.2-5.3c0-0.2-0.1-0.5-0.3-0.6c-1.1-0.8-1.6-1.2-2.6-2.1c-7.1-6-11-12.5-15.2-19.7c1.2,0.6,3.1,0.9,5.2,0.5
		c3.2-0.6,5.6-2.5,5.6-4.1c0-0.2-0.1-0.3-0.2-0.5c-0.8-0.6-1.2-0.9-2-1.6c-8.2-7-15.2-14.7-21.5-23.9c-0.2-0.4-0.8-0.4-1,0
		c-6.2,9.2-13.2,17-21.4,24c-0.8,0.6-1.2,1-2,1.6c-0.1,0.1-0.2,0.3-0.2,0.5c0,1.6,2.4,3.5,5.6,4.1c2,0.4,3.8,0.1,5-0.4
		c-4.1,7.2-7.9,13.6-15,19.7c-1,0.8-1.5,1.2-2.6,2.1c-0.2,0.1-0.3,0.4-0.3,0.6c0,2.1,3.1,4.5,7.2,5.3c2.7,0.5,5.1,0.2,6.7-0.6
		c-5.3,9.3-10.3,17.7-19.5,25.5c-1.3,1.1-2,1.6-3.4,2.7c-0.2,0.2-0.4,0.5-0.4,0.8c0,2.7,4,5.8,9.4,6.8c2,0.4,3.9,0.4,5.5,0.2
		c-4.6,7.5-9.8,14.4-17.6,21.1c-1.6,1.3-2.4,1.9-4,3.1c-0.3,0.2-0.5,0.6-0.5,0.9c0,3.2,4.7,6.9,11.1,8c4.8,0.9,9.1,0.1,11.3-1.7
		c0.7-0.6,1.9-0.4,2.5,0.3c1.8,2.2,5.9,4.1,10.7,4.4c4.8,0.3,9.1-1,11.1-3.1c0.7-0.7,1.9-0.7,2.5,0c2,2,6.2,3.3,11.1,3
		c4.8-0.3,8.9-2.1,10.7-4.4c0.6-0.8,1.8-0.9,2.5-0.3c2.2,1.7,6.5,2.5,11.3,1.6c6.3-1.2,11.1-4.9,11-8.1
		C873.3,1825.4,873.2,1825.1,872.9,1824.8z"/>
	<linearGradient id="SVGID_8_" gradientUnits="userSpaceOnUse" x1="754.1765" y1="1820.3295" x2="754.1765" y2="1722.717">
		<stop  offset="0" style="stop-color:#004B1F"/>
		<stop  offset="1" style="stop-color:#388537"/>
	</linearGradient>
	<path class="st5" d="M814.9,1808.3c-2.1-1.6-3.1-2.4-5.1-4c-10-8.5-16.7-17.4-22.7-26.9c2.1,0.3,4.5,0.3,7.1-0.2
		c6.9-1.3,12-5.3,12-8.8c0-0.4-0.2-0.7-0.5-1c-1.7-1.3-2.6-2-4.3-3.4c-11.8-10-18.2-20.7-25.1-32.7c2,1.1,5.2,1.5,8.7,0.9
		c5.3-1,9.3-4.1,9.2-6.8c0-0.3-0.1-0.6-0.4-0.8c-1.3-1-2-1.6-3.3-2.6c-9.1-7.7-14-16-19.4-25.2c1.5,0.8,4,1.1,6.6,0.6
		c4.1-0.8,7.1-3.1,7.1-5.2c0-0.2-0.1-0.4-0.3-0.6c-1-0.8-1.5-1.2-2.6-2c-10.5-8.9-19.5-18.8-27.4-30.6c-0.3-0.5-1-0.5-1.3,0
		c-7.9,11.8-16.9,21.7-27.4,30.6c-1,0.8-1.5,1.2-2.5,2c-0.2,0.1-0.3,0.4-0.3,0.6c0,2.1,3,4.4,7.1,5.2c2.6,0.5,4.9,0.2,6.4-0.6
		c-5.3,9.2-10.1,17.4-19.2,25.1c-1.3,1.1-2,1.6-3.3,2.6c-0.2,0.2-0.4,0.5-0.4,0.8c0,2.7,3.9,5.8,9.3,6.7c3.4,0.6,6.5,0.2,8.5-0.8
		c-6.8,11.9-13.1,22.6-24.9,32.6c-1.7,1.4-2.6,2.1-4.3,3.4c-0.3,0.2-0.5,0.6-0.5,1c0,3.5,5.1,7.5,12,8.7c2.5,0.5,4.9,0.5,7,0.2
		c-5.9,9.6-12.6,18.5-22.5,27c-2,1.6-3,2.4-5.1,4c-0.4,0.3-0.6,0.7-0.6,1.2c0,4.1,6,8.8,14.1,10.3c6.1,1.1,11.7,0.1,14.5-2.1
		c0.9-0.8,2.5-0.6,3.2,0.4c2.3,2.9,7.5,5.2,13.7,5.6c6.2,0.4,11.6-1.3,14.2-3.9c0.9-0.9,2.4-0.9,3.3,0c2.6,2.6,8,4.3,14.2,3.9
		s11.4-2.7,13.7-5.6c0.8-1,2.3-1.2,3.2-0.4c2.8,2.2,8.4,3.2,14.5,2.1c8.1-1.5,14.1-6.3,14.1-10.3
		C815.5,1809,815.3,1808.6,814.9,1808.3z"/>
	<linearGradient id="SVGID_9_" gradientUnits="userSpaceOnUse" x1="879.1357" y1="1839.2606" x2="879.1357" y2="1787.9618">
		<stop  offset="0" style="stop-color:#004B1F"/>
		<stop  offset="1" style="stop-color:#388537"/>
	</linearGradient>
	<path class="st6" d="M911.1,1832.9c-1.1-0.8-1.6-1.3-2.7-2.1c-5.2-4.5-8.8-9.1-11.9-14.1c1.1,0.2,2.4,0.1,3.7-0.1
		c3.6-0.7,6.3-2.8,6.3-4.6c0-0.2-0.1-0.4-0.3-0.5c-0.9-0.7-1.4-1.1-2.3-1.8c-6.2-5.3-9.6-10.9-13.2-17.2c1,0.6,2.7,0.8,4.6,0.4
		c2.8-0.5,4.9-2.2,4.9-3.6c0-0.2-0.1-0.3-0.2-0.4c-0.7-0.5-1.1-0.8-1.7-1.4c-4.8-4.1-7.4-8.4-10.2-13.2c0.8,0.4,2.1,0.6,3.5,0.3
		c2.1-0.4,3.7-1.7,3.7-2.7c0-0.1-0.1-0.2-0.2-0.3c-0.5-0.4-0.8-0.6-1.3-1.1c-5.5-4.7-10.2-9.9-14.4-16.1c-0.2-0.3-0.5-0.3-0.7,0
		c-4.2,6.2-8.9,11.4-14.4,16.1c-0.5,0.4-0.8,0.6-1.3,1.1c-0.1,0.1-0.2,0.2-0.2,0.3c0,1.1,1.6,2.3,3.7,2.7c1.3,0.2,2.6,0.1,3.4-0.3
		c-2.8,4.8-5.3,9.2-10.1,13.2c-0.7,0.6-1,0.8-1.7,1.4c-0.1,0.1-0.2,0.2-0.2,0.4c0,1.4,2.1,3,4.9,3.5c1.8,0.3,3.4,0.1,4.5-0.4
		c-3.6,6.3-6.9,11.9-13.1,17.2c-0.9,0.7-1.3,1.1-2.3,1.8c-0.2,0.1-0.3,0.3-0.3,0.5c0,1.8,2.7,3.9,6.3,4.6c1.3,0.2,2.6,0.3,3.7,0.1
		c-3.1,5-6.6,9.7-11.8,14.2c-1,0.9-1.6,1.3-2.7,2.1c-0.2,0.2-0.3,0.4-0.3,0.6c0,2.1,3.2,4.6,7.4,5.4c3.2,0.6,6.1,0.1,7.6-1.1
		c0.5-0.4,1.3-0.3,1.7,0.2c1.2,1.5,4,2.7,7.2,2.9c3.3,0.2,6.1-0.7,7.4-2.1c0.5-0.5,1.3-0.5,1.7,0c1.4,1.3,4.2,2.2,7.4,2s6-1.4,7.2-3
		c0.4-0.5,1.2-0.6,1.7-0.2c1.5,1.2,4.4,1.7,7.6,1.1c4.3-0.8,7.4-3.3,7.4-5.4C911.4,1833.3,911.3,1833.1,911.1,1832.9z"/>
	<linearGradient id="SVGID_10_" gradientUnits="userSpaceOnUse" x1="252.2824" y1="1703.2513" x2="252.2824" y2="1634.7883">
		<stop  offset="0" style="stop-color:#004B1F"/>
		<stop  offset="1" style="stop-color:#388537"/>
	</linearGradient>
	<path class="st7" d="M294.9,1694.8c-1.4-1.1-2.1-1.7-3.6-2.8c-7-5.9-11.7-12.2-15.9-18.9c1.5,0.2,3.2,0.2,5-0.1
		c4.8-0.9,8.4-3.7,8.4-6.2c0-0.3-0.1-0.5-0.4-0.7c-1.2-0.9-1.8-1.4-3-2.4c-8.3-7-12.8-14.6-17.6-22.9c1.4,0.8,3.6,1.1,6.1,0.6
		c3.7-0.7,6.5-2.9,6.5-4.8c0-0.2-0.1-0.4-0.3-0.5c-0.9-0.7-1.4-1.1-2.3-1.8c-6.4-5.4-9.8-11.2-13.6-17.6c1.1,0.6,2.8,0.8,4.6,0.4
		c2.9-0.5,5-2.2,5-3.6c0-0.2-0.1-0.3-0.2-0.4c-0.7-0.6-1.1-0.8-1.8-1.4c-7.4-6.3-13.7-13.2-19.2-21.4c-0.2-0.3-0.7-0.3-0.9,0
		c-5.6,8.3-11.8,15.2-19.2,21.5c-0.7,0.6-1.1,0.9-1.8,1.4c-0.1,0.1-0.2,0.3-0.2,0.4c0,1.4,2.1,3.1,5,3.6c1.8,0.3,3.4,0.1,4.5-0.4
		c-3.7,6.4-7.1,12.2-13.4,17.6c-0.9,0.7-1.4,1.1-2.3,1.8c-0.2,0.1-0.3,0.3-0.3,0.5c0,1.9,2.8,4,6.5,4.7c2.4,0.4,4.6,0.2,6-0.6
		c-4.8,8.3-9.2,15.9-17.4,22.9c-1.2,1-1.8,1.5-3,2.4c-0.2,0.2-0.4,0.4-0.4,0.7c0,2.4,3.6,5.2,8.4,6.1c1.8,0.3,3.5,0.3,4.9,0.1
		c-4.2,6.7-8.8,13-15.8,18.9c-1.4,1.1-2.1,1.7-3.5,2.8c-0.3,0.2-0.4,0.5-0.4,0.8c0,2.9,4.2,6.2,9.9,7.2c4.3,0.8,8.2,0.1,10.2-1.5
		c0.7-0.5,1.7-0.4,2.3,0.3c1.6,2,5.3,3.7,9.6,3.9c4.3,0.3,8.1-0.9,9.9-2.7c0.6-0.6,1.7-0.6,2.3,0c1.8,1.8,5.6,3,9.9,2.7
		c4.3-0.3,8-1.9,9.6-3.9c0.5-0.7,1.6-0.8,2.3-0.3c2,1.6,5.9,2.3,10.2,1.5c5.7-1.1,9.9-4.4,9.9-7.2
		C295.3,1695.3,295.2,1695,294.9,1694.8z"/>
	<linearGradient id="SVGID_11_" gradientUnits="userSpaceOnUse" x1="384.2694" y1="1734.3704" x2="384.2694" y2="1665.9072">
		<stop  offset="0" style="stop-color:#004B1F"/>
		<stop  offset="1" style="stop-color:#388537"/>
	</linearGradient>
	<path class="st8" d="M426.9,1725.9c-1.4-1.1-2.1-1.7-3.6-2.8c-7-5.9-11.7-12.2-15.9-18.9c1.5,0.2,3.2,0.2,5-0.1
		c4.8-0.9,8.4-3.7,8.4-6.2c0-0.3-0.1-0.5-0.4-0.7c-1.2-0.9-1.8-1.4-3-2.4c-8.3-7-12.8-14.6-17.6-22.9c1.4,0.8,3.6,1.1,6.1,0.6
		c3.7-0.7,6.5-2.9,6.5-4.8c0-0.2-0.1-0.4-0.3-0.5c-0.9-0.7-1.4-1.1-2.3-1.8c-6.4-5.4-9.8-11.2-13.6-17.6c1.1,0.6,2.8,0.8,4.6,0.4
		c2.9-0.5,5-2.2,5-3.6c0-0.2-0.1-0.3-0.2-0.4c-0.7-0.6-1.1-0.8-1.8-1.4c-7.4-6.3-13.7-13.2-19.2-21.4c-0.2-0.3-0.7-0.3-0.9,0
		c-5.6,8.3-11.8,15.2-19.2,21.5c-0.7,0.6-1.1,0.9-1.8,1.4c-0.1,0.1-0.2,0.3-0.2,0.4c0,1.4,2.1,3.1,5,3.6c1.8,0.3,3.4,0.1,4.5-0.4
		c-3.7,6.4-7.1,12.2-13.4,17.6c-0.9,0.7-1.4,1.1-2.3,1.8c-0.2,0.1-0.3,0.3-0.3,0.5c0,1.9,2.8,4,6.5,4.7c2.4,0.4,4.6,0.2,6-0.6
		c-4.8,8.3-9.2,15.9-17.4,22.9c-1.2,1-1.8,1.5-3,2.4c-0.2,0.2-0.4,0.4-0.4,0.7c0,2.4,3.6,5.2,8.4,6.1c1.8,0.3,3.5,0.3,4.9,0.1
		c-4.2,6.7-8.8,13-15.8,18.9c-1.4,1.1-2.1,1.7-3.5,2.8c-0.3,0.2-0.4,0.5-0.4,0.8c0,2.9,4.2,6.2,9.9,7.2c4.3,0.8,8.2,0.1,10.2-1.5
		c0.7-0.5,1.7-0.4,2.3,0.3c1.6,2,5.3,3.7,9.6,3.9c4.3,0.3,8.1-0.9,9.9-2.7c0.6-0.6,1.7-0.6,2.3,0c1.8,1.8,5.6,3,9.9,2.7
		c4.3-0.3,8-1.9,9.6-3.9c0.5-0.7,1.6-0.8,2.3-0.3c2,1.6,5.9,2.3,10.2,1.5c5.7-1.1,9.9-4.4,9.9-7.2
		C427.3,1726.4,427.1,1726.1,426.9,1725.9z"/>
	<linearGradient id="SVGID_12_" gradientUnits="userSpaceOnUse" x1="320.4283" y1="1721.8866" x2="320.4283" y2="1634.3474">
		<stop  offset="0" style="stop-color:#004B1F"/>
		<stop  offset="1" style="stop-color:#388537"/>
	</linearGradient>
	<path class="st9" d="M374.9,1711.1c-1.8-1.4-2.7-2.1-4.5-3.6c-8.9-7.6-14.9-15.6-20.3-24.1c1.9,0.3,4.1,0.3,6.4-0.2
		c6.2-1.2,10.8-4.8,10.8-7.9c0-0.4-0.2-0.7-0.5-0.9c-1.6-1.2-2.3-1.8-3.9-3.1c-10.6-9-16.3-18.6-22.6-29.3c1.8,1,4.7,1.4,7.8,0.8
		c4.8-0.9,8.3-3.7,8.3-6.1c0-0.3-0.1-0.5-0.4-0.7c-1.2-0.9-1.8-1.4-3-2.4c-8.1-6.9-12.6-14.3-17.4-22.6c1.4,0.7,3.5,1,5.9,0.5
		c3.7-0.7,6.4-2.8,6.4-4.7c0-0.2-0.1-0.4-0.3-0.5c-0.9-0.7-1.4-1.1-2.3-1.8c-9.4-8-17.5-16.8-24.6-27.4c-0.3-0.4-0.9-0.4-1.2,0
		c-7.1,10.6-15.1,19.4-24.5,27.5c-0.9,0.7-1.4,1.1-2.3,1.8c-0.2,0.1-0.3,0.3-0.3,0.5c0,1.8,2.7,4,6.4,4.6c2.3,0.4,4.4,0.2,5.8-0.5
		c-4.7,8.2-9.1,15.6-17.2,22.5c-1.2,1-1.8,1.4-3,2.4c-0.2,0.2-0.3,0.4-0.3,0.7c0,2.4,3.5,5.2,8.3,6.1c3.1,0.6,5.9,0.2,7.6-0.7
		c-6.1,10.7-11.8,20.3-22.3,29.3c-1.5,1.2-2.3,1.9-3.9,3.1c-0.3,0.2-0.5,0.5-0.5,0.9c0,3.1,4.6,6.7,10.8,7.8
		c2.3,0.4,4.4,0.4,6.3,0.2c-5.3,8.6-11.3,16.6-20.2,24.2c-1.8,1.5-2.7,2.2-4.5,3.6c-0.3,0.3-0.5,0.6-0.5,1.1c0,3.7,5.4,7.9,12.7,9.2
		c5.5,1,10.5,0.1,13-1.9c0.9-0.7,2.2-0.5,2.9,0.4c2.1,2.6,6.7,4.7,12.3,5c5.5,0.3,10.4-1.2,12.7-3.5c0.8-0.8,2.1-0.8,2.9,0
		c2.3,2.3,7.2,3.8,12.7,3.5c5.5-0.3,10.2-2.5,12.3-5c0.7-0.9,2.1-1,2.9-0.4c2.5,2,7.5,2.9,13,1.9c7.3-1.4,12.7-5.6,12.6-9.3
		C375.4,1711.7,375.2,1711.3,374.9,1711.1z"/>
	<linearGradient id="SVGID_13_" gradientUnits="userSpaceOnUse" x1="432.4916" y1="1738.8641" x2="432.4916" y2="1692.8591">
		<stop  offset="0" style="stop-color:#004B1F"/>
		<stop  offset="1" style="stop-color:#388537"/>
	</linearGradient>
	<path class="st10" d="M461.1,1733.2c-1-0.7-1.4-1.1-2.4-1.9c-4.7-4-7.9-8.2-10.7-12.7c1,0.1,2.1,0.1,3.4-0.1
		c3.3-0.6,5.7-2.5,5.7-4.1c0-0.2-0.1-0.4-0.2-0.5c-0.8-0.6-1.2-1-2-1.6c-5.6-4.7-8.6-9.8-11.9-15.4c0.9,0.5,2.5,0.7,4.1,0.4
		c2.5-0.5,4.4-1.9,4.4-3.2c0-0.1-0.1-0.3-0.2-0.4c-0.6-0.5-0.9-0.7-1.6-1.2c-4.3-3.6-6.6-7.5-9.1-11.9c0.7,0.4,1.9,0.5,3.1,0.3
		c1.9-0.4,3.4-1.5,3.3-2.5c0-0.1-0.1-0.2-0.1-0.3c-0.5-0.4-0.7-0.6-1.2-1c-4.9-4.2-9.2-8.9-12.9-14.4c-0.2-0.2-0.5-0.2-0.6,0
		c-3.7,5.6-8,10.2-12.9,14.4c-0.5,0.4-0.7,0.6-1.2,1c-0.1,0.1-0.1,0.2-0.1,0.3c0,1,1.4,2.1,3.4,2.4c1.2,0.2,2.3,0.1,3-0.3
		c-2.5,4.3-4.8,8.2-9,11.8c-0.6,0.5-0.9,0.8-1.6,1.2c-0.1,0.1-0.2,0.2-0.2,0.4c0,1.3,1.9,2.7,4.4,3.2c1.6,0.3,3.1,0.1,4-0.4
		c-3.2,5.6-6.2,10.7-11.7,15.4c-0.8,0.7-1.2,1-2,1.6c-0.1,0.1-0.2,0.3-0.2,0.5c0,1.6,2.4,3.5,5.7,4.1c1.2,0.2,2.3,0.2,3.3,0.1
		c-2.8,4.5-5.9,8.7-10.6,12.7c-0.9,0.8-1.4,1.1-2.4,1.9c-0.2,0.1-0.3,0.3-0.3,0.6c0,1.9,2.8,4.1,6.7,4.8c2.9,0.5,5.5,0.1,6.8-1
		c0.4-0.4,1.2-0.3,1.5,0.2c1.1,1.4,3.5,2.5,6.5,2.6c2.9,0.2,5.5-0.6,6.7-1.8c0.4-0.4,1.1-0.4,1.5,0c1.2,1.2,3.8,2,6.7,1.8
		c2.9-0.2,5.4-1.3,6.5-2.6c0.4-0.5,1.1-0.5,1.5-0.2c1.3,1.1,3.9,1.5,6.8,1c3.8-0.7,6.7-2.9,6.6-4.9
		C461.4,1733.5,461.3,1733.3,461.1,1733.2z"/>
	<linearGradient id="SVGID_14_" gradientUnits="userSpaceOnUse" x1="139.0811" y1="1672.2428" x2="139.0811" y2="1626.2378">
		<stop  offset="0" style="stop-color:#004B1F"/>
		<stop  offset="1" style="stop-color:#388537"/>
	</linearGradient>
	<path class="st11" d="M167.7,1666.6c-1-0.7-1.4-1.1-2.4-1.9c-4.7-4-7.9-8.2-10.7-12.7c1,0.1,2.1,0.1,3.4-0.1
		c3.3-0.6,5.7-2.5,5.7-4.1c0-0.2-0.1-0.4-0.2-0.5c-0.8-0.6-1.2-1-2-1.6c-5.6-4.7-8.6-9.8-11.9-15.4c0.9,0.5,2.5,0.7,4.1,0.4
		c2.5-0.5,4.4-1.9,4.4-3.2c0-0.1-0.1-0.3-0.2-0.4c-0.6-0.5-0.9-0.7-1.6-1.2c-4.3-3.6-6.6-7.5-9.1-11.9c0.7,0.4,1.9,0.5,3.1,0.3
		c1.9-0.4,3.4-1.5,3.3-2.5c0-0.1-0.1-0.2-0.1-0.3c-0.5-0.4-0.7-0.6-1.2-1c-4.9-4.2-9.2-8.9-12.9-14.4c-0.1-0.2-0.5-0.2-0.6,0
		c-3.7,5.6-8,10.2-12.9,14.4c-0.5,0.4-0.7,0.6-1.2,1c-0.1,0.1-0.1,0.2-0.1,0.3c0,1,1.4,2.1,3.4,2.4c1.2,0.2,2.3,0.1,3-0.3
		c-2.5,4.3-4.8,8.2-9,11.8c-0.6,0.5-0.9,0.8-1.6,1.2c-0.1,0.1-0.2,0.2-0.2,0.4c0,1.3,1.9,2.7,4.4,3.2c1.6,0.3,3.1,0.1,4-0.4
		c-3.2,5.6-6.2,10.7-11.7,15.4c-0.8,0.7-1.2,1-2,1.6c-0.1,0.1-0.2,0.3-0.2,0.5c0,1.6,2.4,3.5,5.7,4.1c1.2,0.2,2.3,0.2,3.3,0.1
		c-2.8,4.5-5.9,8.7-10.6,12.7c-0.9,0.8-1.4,1.1-2.4,1.9c-0.2,0.1-0.3,0.3-0.3,0.6c0,1.9,2.8,4.1,6.7,4.8c2.9,0.5,5.5,0.1,6.8-1
		c0.4-0.4,1.2-0.3,1.5,0.2c1.1,1.4,3.5,2.5,6.5,2.6c2.9,0.2,5.5-0.6,6.7-1.8c0.4-0.4,1.1-0.4,1.5,0c1.2,1.2,3.8,2,6.7,1.8
		c2.9-0.2,5.4-1.3,6.5-2.6c0.4-0.5,1.1-0.5,1.5-0.2c1.3,1.1,3.9,1.5,6.8,1c3.8-0.7,6.7-2.9,6.6-4.9
		C168,1666.9,167.9,1666.7,167.7,1666.6z"/>
	<linearGradient id="SVGID_15_" gradientUnits="userSpaceOnUse" x1="101.6146" y1="1660.5801" x2="101.6146" y2="1600.9641">
		<stop  offset="0" style="stop-color:#004B1F"/>
		<stop  offset="1" style="stop-color:#388537"/>
	</linearGradient>
	<path class="st12" d="M138.7,1653.2c-1.3-1-1.9-1.5-3.1-2.4c-6.1-5.2-10.2-10.6-13.9-16.4c1.3,0.2,2.8,0.2,4.3-0.1
		c4.2-0.8,7.3-3.2,7.3-5.4c0-0.2-0.1-0.5-0.3-0.6c-1.1-0.8-1.6-1.2-2.6-2.1c-7.2-6.1-11.1-12.7-15.4-19.9c1.2,0.7,3.2,0.9,5.3,0.5
		c3.2-0.6,5.7-2.5,5.6-4.1c0-0.2-0.1-0.4-0.2-0.5c-0.8-0.6-1.2-1-2-1.6c-5.5-4.7-8.6-9.8-11.8-15.4c0.9,0.5,2.4,0.7,4,0.4
		c2.5-0.5,4.3-1.9,4.3-3.2c0-0.1-0.1-0.3-0.2-0.4c-0.6-0.5-0.9-0.7-1.6-1.2c-6.4-5.4-11.9-11.5-16.8-18.7c-0.2-0.3-0.6-0.3-0.8,0
		c-4.8,7.2-10.3,13.2-16.7,18.7c-0.6,0.5-0.9,0.7-1.6,1.2c-0.1,0.1-0.2,0.2-0.2,0.4c0,1.3,1.8,2.7,4.3,3.2c1.6,0.3,3,0.1,3.9-0.3
		c-3.2,5.6-6.2,10.6-11.7,15.4c-0.8,0.7-1.2,1-2,1.6c-0.1,0.1-0.2,0.3-0.2,0.5c0,1.6,2.4,3.5,5.7,4.1c2.1,0.4,4,0.1,5.2-0.5
		c-4.2,7.3-8,13.8-15.2,19.9c-1,0.8-1.6,1.3-2.6,2.1c-0.2,0.2-0.3,0.4-0.3,0.6c0,2.1,3.1,4.6,7.3,5.3c1.5,0.3,3,0.3,4.3,0.1
		c-3.6,5.8-7.7,11.3-13.7,16.5c-1.2,1-1.8,1.5-3.1,2.5c-0.2,0.2-0.4,0.4-0.4,0.7c0,2.5,3.7,5.4,8.6,6.3c3.7,0.7,7.1,0.1,8.8-1.3
		c0.6-0.5,1.5-0.4,2,0.2c1.4,1.8,4.6,3.2,8.4,3.4c3.8,0.2,7.1-0.8,8.6-2.4c0.5-0.5,1.5-0.5,2,0c1.6,1.6,4.9,2.6,8.7,2.4
		c3.8-0.2,7-1.7,8.4-3.4c0.5-0.6,1.4-0.7,2-0.2c1.7,1.4,5.1,2,8.9,1.3c5-0.9,8.6-3.8,8.6-6.3
		C139.1,1653.7,138.9,1653.4,138.7,1653.2z"/>
	<linearGradient id="SVGID_16_" gradientUnits="userSpaceOnUse" x1="413.0096" y1="2124.1453" x2="348.5515" y2="1662.1975">
		<stop  offset="7.233800e-04" style="stop-color:#38851C"/>
		<stop  offset="1" style="stop-color:#BCED7E"/>
	</linearGradient>
	<path class="st13" d="M1011.1,1861.2c736.2,122.3,1168.5,8.2,1340-57.3v384.7l-3911.8,0v-655.7
		C-698.4,1328.4,115.1,1712.4,1011.1,1861.2z"/>
	<linearGradient id="SVGID_17_" gradientUnits="userSpaceOnUse" x1="1659.4161" y1="1764.0726" x2="1659.4161" y2="1572.3838">
		<stop  offset="0" style="stop-color:#004B1F"/>
		<stop  offset="1" style="stop-color:#388537"/>
	</linearGradient>
	<path class="st14" d="M1778.7,1740.4c-4-3.1-6-4.7-9.9-7.9c-19.6-16.6-32.7-34.1-44.5-52.9c4.1,0.6,8.9,0.6,14-0.4
		c13.6-2.5,23.6-10.4,23.6-17.2c0-0.8-0.4-1.5-1-2c-3.4-2.6-5.1-4-8.5-6.7c-23.2-19.7-35.8-40.7-49.4-64.1c3.9,2.1,10.2,3,17.1,1.7
		c10.4-2,18.2-8.1,18.2-13.3c0-0.6-0.3-1.1-0.8-1.5c-2.6-2-3.9-3.1-6.5-5.2c-17.8-15.2-27.6-31.4-38-49.4c3,1.6,7.8,2.2,12.9,1.2
		c8-1.5,14-6.2,13.9-10.2c0-0.5-0.2-0.9-0.6-1.2c-2-1.6-3-2.4-5-4c-20.6-17.5-38.3-36.9-53.9-60c-0.6-1-1.9-1-2.5,0
		c-15.6,23.2-33.1,42.6-53.7,60.2c-2,1.6-3,2.4-5,4c-0.4,0.3-0.6,0.7-0.6,1.2c0,4,5.9,8.7,14,10.2c5,0.9,9.7,0.4,12.7-1.1
		c-10.3,18-19.9,34.2-37.6,49.4c-2.6,2.1-3.9,3.1-6.5,5.2c-0.5,0.4-0.8,0.9-0.8,1.5c0,5.3,7.7,11.3,18.2,13.3
		c6.7,1.2,12.8,0.5,16.7-1.6c-13.4,23.4-25.8,44.4-48.8,64.1c-3.3,2.7-5,4.1-8.4,6.7c-0.6,0.5-1,1.2-1,2c0,6.8,10,14.7,23.6,17.2
		c5,0.9,9.7,1,13.8,0.4c-11.6,18.8-24.6,36.3-44.2,53c-3.9,3.2-5.9,4.8-9.9,7.9c-0.7,0.6-1.2,1.4-1.2,2.3c0,8,11.8,17.3,27.8,20.2
		c12,2.2,22.9,0.2,28.4-4.2c1.9-1.5,4.8-1.1,6.4,0.8c4.5,5.6,14.8,10.2,26.9,11c12.2,0.7,22.8-2.6,27.8-7.7c1.7-1.7,4.7-1.7,6.4,0
		c5,5,15.7,8.4,27.8,7.6c12.2-0.8,22.4-5.4,26.9-11c1.5-1.9,4.5-2.3,6.4-0.8c5.5,4.4,16.4,6.4,28.5,4.1c15.9-3,27.8-12.3,27.7-20.3
		C1779.9,1741.8,1779.5,1741,1778.7,1740.4z"/>
</g>
</svg>
