<?xml version="1.0" encoding="UTF-8"?>
<svg viewBox="0 0 707 291" xmlns="http://www.w3.org/2000/svg">
 <defs>
  <filter id="a">
   <feGaussianBlur stdDeviation="2.34298"/>
  </filter>
  <linearGradient id="d" x1="655.95" x2="683.31" gradientUnits="userSpaceOnUse">
   <stop stop-color="#8d5c34" offset=".0048"/>
   <stop stop-color="#93633b" offset=".1429"/>
   <stop stop-color="#e8d0a9" offset=".2952"/>
   <stop stop-color="#e3cba4" offset=".6381"/>
   <stop stop-color="#93633a" offset=".9333"/>
   <stop stop-color="#8d5c34" offset="1"/>
  </linearGradient>
  <linearGradient id="c" x1="32.786" x2="666.1" gradientUnits="userSpaceOnUse">
   <stop stop-color="#8d5c34" offset="0"/>
   <stop stop-color="#d1b38b" offset=".0333"/>
   <stop stop-color="#e3cba4" offset=".9143"/>
   <stop stop-color="#8d5c34" offset="1"/>
  </linearGradient>
  <linearGradient id="b" x1="8.7383" x2="34.118" gradientUnits="userSpaceOnUse">
   <stop stop-color="#8d5c34" offset=".1286"/>
   <stop stop-color="#e8d0a9" offset=".2905"/>
   <stop stop-color="#e3cba4" offset=".5952"/>
   <stop stop-color="#8d5c34" offset="1"/>
  </linearGradient>
 </defs>
 <path d="m674.75983,10.95493c-2.268-.359-4.752-.359-7.633,0-2.916.324-6.947,1.188-10.475,2.195v3.744l-19.477-.144-11.016-.647-11.016.324-10.117.215c0,0 1.117,9.504 1.008,12.564-.324,11.7-3.527-1.764-7.703,10.188-2.16,6.192-1.477,8.785-1.477,8.785s-5.328-2.341-7.092-6.769c-9.072-22.824-10.439,10.8-19.008,1.764-2.232-2.34-1.656-3.888-1.836-8.1s1.225-4.104 1.08-8.748c-.107-4.644-1.584-9.792-1.584-9.792s-15.625.72-33.877.576c-18.252-.18-21.455-.324-39.492-.684-18.035-.361-32.219-.217-32.219-.217-36.072-.072-18.648-.107-22.104,0-3.529.072-8.281.54-11.557.792-3.24.216-5.76.72-7.848.647-.289.504-.289,1.656 0,3.529 .252,1.871 1.727,5.399 1.584,7.596-.18,2.16-1.008,3.852-2.557,5.256 .684-1.98 1.008-3.6.973-4.969-.072-1.403-.828-1.332-1.297-3.203-.432-1.944-.828-4.608-1.26-8.209-3.096-.035-6.553-.252-10.512-.575-3.924-.36-7.309-1.62-13.031-1.476-5.725.18-15.301,1.979-20.988,2.34-5.652.359-9.828.252-12.744-.289-3.42-.828-7.596-1.295-12.709-1.439-5.147-.145-12.6.288-17.819.576-5.184.288-7.164.828-13.032,1.152-5.904.359-15.804.936-21.96.899-6.12-.071-9.936-1.296-14.652-1.188-4.68.109-9.072.685-13.356,1.765-.252.792-.684,1.728-1.26,2.916s-1.908,1.944-2.232,4.104c-.288,2.16.54,7.199.324,8.748-.216,1.512-.72,1.619-1.584.287 .504-2.592.432-4.896-.324-6.984-.756-2.123-3.168-3.959-4.14-5.58-.936-1.619.288-3.096-1.584-4.067-1.872-1.008-3.96-1.548-9.54-1.764-5.652-.181-17.46.396-23.868.575-6.372.217-8.604.181-14.22.576-5.616.396 9.54,1.656-19.44,1.765-7.812.108-15.624.252-23.436.396-8.568-.216-17.136-.468-25.704-.72-5.328.108-10.656.216-16.02.36-1.872,1.332-3.744,2.699-5.616,4.068 0,0 .072-.613-.108.647-.216,1.296-.72,4.5-.72,4.5-1.332,1.584-2.664,3.168-3.996,4.788 0,0 .612-1.584 0-3.672-.612-2.125-1.908-2.053-2.412-4.789-.504-2.771.396-6.264.396-6.264-8.424-.107-16.848-.252-25.272-.396-6.264-.108-12.564-.216-18.864-.36-29.34.108 41.94,1.152-32.4.288 .108-1.728.216-3.491.324-5.256-2.988-2.304-6.228-3.384-9.864-3.239-3.636.18-7.488,1.512-11.772,4.104-1.473,84.026-2.949,168.05-4.425,252.11 .144.216 1.296.504 3.492.899s5.328.864 9.54,1.44c.612.756 1.26,1.548 1.908,2.34 3.096.108 5.58-.072 7.632-.576s3.492-1.26 4.464-2.34c-.18-2.304-.36-4.644-.576-6.983 8.136.107 16.308.216 24.48.359 12.564.36 25.128.72 37.692,1.116 10.44-.216 20.88-.468 31.32-.72v-4.429l2.808-10.691 2.376,6.264c-.108,2.7-.252,5.4-.396,8.101 34.164-.181 58.32-.072 73.836.359 15.336.433 11.772,2.196 17.928,2.232s13.572-1.692 18.756-2.017c5.184-.359 7.668.108 12.096,0 4.428-.18 9.144-.432 14.328-.899 0-2.196.216-4.032.612-5.544 .432-1.513 1.08-2.664 1.908-3.492-.612,1.944-.72,3.78-.324,5.544 .468,1.764 1.404,3.384 2.88,4.968 5.976.612 11.628,1.008 17.172,1.152 5.58.144 10.764.072 15.912-.288-.648-1.656-.864-3.204-.648-4.68 .252-1.477 1.548-2.124 1.908-4.068 .396-1.98.504-4.464.324-7.596 0,.611.108,1.476.324,2.628 .216,1.116.756,2.664.972,4.067 .18,1.44-.324,2.952.288,4.393 .648,1.439.792,3.06 3.528,4.104 2.736,1.008 7.992,1.836 12.708,2.017 4.716.216 12.168.216 15.264-.864s1.44-5.472 3.204-5.544c1.764-.036 3.779,4.392 7.309,5.256 3.527.828 8.855-.252 13.68-.288s9.719-.036 14.939,0c.936-1.224 1.764-2.592 2.557-4.104s1.223-5.004 2.23-4.969c1.01.072 3.602,4.068 3.816,5.257 .217,1.188-3.059.792-2.555,1.764 .539.972 1.332,3.6 5.723,4.104 4.465.469 11.232.108 20.701-1.188 .791-4.104 1.943-6.12 3.492-6.12s3.168,4.968 5.723,6.12c2.484,1.116-1.08,1.151 39.277,1.368l36.107-.721 40.896-.359c0,0-.686-3.78-.396-6.265 .324-2.483-1.477-5.363-.396-5.903 1.117-.54 3.924,4.896 6.408,3.672 2.52-1.188 4.824-6.624 4.824-6.624s2.736-2.376 4.031-1.116c1.297,1.296 1.584,3.313 1.98,6.66 .432,3.312-1.404,4.032-.396,6.624 1.008,2.556 4.428,3.672 4.428,3.672l40.5,1.476 16.453-.359c41.039.252 48.527-.648 48.527-.648s2.305,2.845 5.4,3.204c3.133.324 7.381-.036 13.031-1.151-1.043-83.16-2.088-166.319-3.168-249.517-1.727-.863-3.168-1.547-4.463-2.051-1.26-.469-2.305-.756-3.168-.865-.214-1.261-.429-2.521-.646-3.78zm7.02,7.271c-3.24.648-6.336.828-9.539.612-3.24-.252-7.309-1.224-9.576-2.052-2.232-.828-3.457-1.801-3.816-2.916 .18,7.416.684,21.096 1.619,41.76 .9,20.771 2.305,46.368 3.816,81.504 1.477,35.279 3.168,77.184 5.076,127.979 2.053,1.116 4.32,1.692 6.984,1.729 2.699.071 5.615-.396 8.928-1.44-1.152-82.368-2.305-164.772-3.492-247.176zm-14.364,245.304c-113.904-.576-73.439.756-90.684,0 0,0-9.324.216-13.248-1.08-3.889-1.296-1.512-.647-2.412-4.067s-.072-6.084-1.189-9.576-3.203-4.428-3.203-4.428-4.932,1.476-7.236,3.708c-2.303,2.195-2.016,5.147-2.016,5.147s-4.68-5.436-6.805-4.788c-2.088.648-1.115,3.96-1.619,7.38-.469,3.385-.396,6.265-.396,6.265-17.244-.756-46.908,0-46.908,0-12.707.216-25.416.468-38.123.72-39.996-.18-22.896,1.08-25.74-.036-2.881-1.152-5.111-5.688-6.984-6.731-1.871-1.009-3.023-.576-4.141.575-1.115,1.188-1.943,3.313-2.555,6.444-4.537.396-8.389.576-11.771.576-3.35,0-6.697-.036-8.244-.576s-1.08-1.908-.973-2.628 1.801-.756 1.584-1.764-1.729-3.24-2.844-4.356c-1.152-1.152-2.736-2.736-3.816-2.34s-1.764,3.023-2.557,4.644c-.828,1.62-1.547,3.276-2.23,4.969-6.084-.181-11.197-.288-15.59-.288s-7.811.828-10.512.288c-2.627-.54-3.779-2.412-5.398-3.492-1.584-1.08-2.988-2.809-4.141-2.916-1.116-.108-1.908,1.26-2.52,2.34-.648,1.08 1.115,3.204-1.297,4.068-2.412.899-8.892,1.332-13.032,1.188-4.14-.18-8.82-1.116-11.52-2.052s-3.564-1.368-4.464-3.492c-.9-2.16-.216-6.984-.972-9.36-.72-2.34-1.872-3.888-3.492-4.68 .54,3.061.648,5.652.324,7.884-.324,2.269-1.62,3.744-2.232,5.544-.576,1.836-1.008,3.564-1.26,5.292-.648.036-3.276.036-7.956,0-4.716-.071-11.268-.144-20.052-.323-1.44-1.513-2.484-3.24-3.168-5.257s-1.008-4.212-.972-6.695c-1.332,1.08-2.376,2.412-3.168,4.067-.792,1.692-1.332,3.601-1.584,5.868-12.024-.072-21.6.108-29.268.576-7.632.432-9.18,1.98-14.796,1.944-5.58-.072 6.048-1.548-25.272-2.053-7.164-.287-14.328-.575-21.492-.899h-28.476c-4.284-.108-8.568-.252-12.852-.396-.504-2.556-1.044-5.147-1.584-7.739-1.476-2.305-2.952-4.645-4.428-6.984 0,0-2.088,4.5-3.204,8.1s-1.188,7.021-1.188,7.021c-7.488.468-14.976.972-22.464,1.476-31.788-.504 14.652-1.439-68.364-1.332-.396-79.56-.828-159.119-1.26-238.716l46.728,1.297c9.36-.217 18.72-.469 28.116-.721 0,0-1.116,3.385-.828,5.904 .324,2.484 1.512,1.26 2.016,4.032s-.9,3.96 0,7.021c.9,3.023 3.6,5.147 3.6,5.147s-1.584-4.608-.396-7.38c1.224-2.771 3.6-1.116 5.22-3.672 1.62-2.592-.792-4.141 1.188-6.625 2.016-2.483 6.84-3.311 6.84-3.311h32.508c10.512.107 19.872-.037 28.512-.505 8.676-.504 16.812-1.836 22.896-2.34s7.02-.504 13.284-.576c6.336-.108 19.08-.396 24.192,0 5.076.396 4.824,1.476 6.048,2.341 1.224.827.36.936 1.26,2.627 .936,1.656 3.348,4.824 4.14,7.309 .792,2.447-.144,5.832.648,7.271 .828,1.44 3.42,2.16 4.14,1.188 .684-1.009-.216-4.572 0-7.021s.468-5.615 1.26-7.596c.792-1.943 1.944-3.275 3.492-4.104 4.752-.864 8.82-1.332 12.42-1.44 3.564-.108 3.492.756 8.892.864 5.508.107 15.696.144 23.544-.288 7.884-.433 17.424-2.052 23.22-2.341 5.76-.287 6.516.145 11.16.576 4.645.469 10.98,1.836 16.523,2.053 5.58.216 11.197-.324 16.561-.864 5.328-.54 11.447-2.231 15.264-2.34 3.779-.108 4.176,1.26 7.309,1.764 3.168.468 6.912.864 11.447,1.152 1.656,3.132 2.592,6.12 2.881,9.071 .252,2.916-.145,5.725-1.297,8.461 2.953-2.881 4.932-5.185 6.049-7.021 1.115-1.8.9-1.979.648-3.78-.252-1.836-1.01-4.14-2.232-7.02 .971-.504 3.492-.864 7.631-1.152 4.141-.324-3.527-.9 34.164-.9l27.072-.107 39.996.792 18.684-.323 16.885-.252c0,0 1.043,5.075 1.008,10.151-.072,5.04-1.691,5.651-1.225,10.116 .434,4.428.252,5.615 3.061,7.632 12.779,9.071 8.279-24.624 19.764-2.124 2.701,5.292 8.676,9.107 8.676,9.107s-.719-4.428 1.225-11.123c3.348-11.34 7.848-1.008 7.381-12.205-.145-2.987-1.152-11.195-1.152-11.195s5.688-.288 18.611-.792c12.924-.468 31.969,1.224 31.969,1.224 3.56,81.647 7.162,163.294 10.761,244.978zm6.084-251.136c.396,1.26.828,2.521 1.26,3.816 1.477.359 2.951.756 4.465,1.152-3.42.18-6.553,0-9.541-.576-2.988-.611-5.688-1.549-8.279-2.916 2.664-.936 4.967-1.512 6.984-1.764 2.051-.251 3.707-.144 5.111.288zm-661.788,253.584c1.764-.828 3.96-1.296 6.66-1.44 2.736-.18 6.66.072 9.576.576 2.88.469 5.364,1.26 7.632,2.34-1.296.9-2.664,1.513-4.14,1.729-1.512.252-3.06.144-4.788-.288-1.044-.684-2.088-1.368-3.168-2.052l-11.772-.865zm23.868-.864c-.432-24.012-.756-56.16-.972-98.172-.216-42.155-.324-92.015-.324-152.208-.756-1.907-2.628-2.771-5.724-2.627s-7.272,1.295-12.708,3.492c-1.368,82.655-2.736,165.347-4.14,248.039 4.176-.937 7.812-1.404 11.124-1.44 3.312-.071 6.444.648 8.604,1.152 2.124.504 3.492,1.08 4.14,1.764z" fill="#4d4d4d" fill-rule="evenodd" filter="url(#a)" stroke="#000" stroke-miterlimit="10" stroke-width=".036"/>
 <path d="m672.578,8.643c-2.268-.359-4.752-.359-7.633,0-2.916.324-6.947,1.188-10.475,2.195v3.744l-19.477-.144-11.016-.647-11.016.324-10.117.215c0,0 1.117,9.504 1.008,12.564-.324,11.7-3.527-1.764-7.703,10.188-2.16,6.192-1.477,8.785-1.477,8.785s-5.328-2.341-7.092-6.769c-9.072-22.824-10.439,10.8-19.008,1.764-2.232-2.34-1.656-3.888-1.836-8.1s1.225-4.104 1.08-8.748c-.107-4.644-1.584-9.792-1.584-9.792s-15.625.72-33.877.576c-18.252-.18-21.455-.324-39.492-.684s-32.219-.217-32.219-.217c-36.072-.072-18.648-.107-22.104,0-3.529.072-8.281.54-11.557.792-3.24.216-5.76.72-7.848.647-.289.504-.289,1.656 0,3.529 .252,1.871 1.727,5.399 1.584,7.596-.18,2.16-1.008,3.852-2.557,5.256 .684-1.98 1.008-3.6.973-4.969-.072-1.403-.828-1.332-1.297-3.203-.432-1.944-.828-4.608-1.26-8.209-3.096-.035-6.553-.252-10.512-.575-3.924-.36-7.309-1.62-13.031-1.476-5.725.18-15.301,1.979-20.988,2.34-5.652.359-9.828.252-12.744-.289-3.42-.828-7.596-1.295-12.709-1.439-5.147-.145-12.6.288-17.819.576-5.184.288-7.164.828-13.032,1.152-5.904.359-15.804.936-21.96.899-6.12-.071-9.936-1.296-14.652-1.188-4.68.109-9.072.685-13.356,1.765-.252.792-.684,1.728-1.26,2.916s-1.908,1.944-2.232,4.104c-.288,2.16.54,7.199.324,8.748-.216,1.512-.72,1.619-1.584.287 .504-2.592.432-4.896-.324-6.984-.756-2.123-3.168-3.959-4.14-5.58-.936-1.619.288-3.096-1.584-4.067-1.872-1.008-3.96-1.548-9.54-1.764-5.652-.181-17.46.396-23.868.575-6.372.217-8.604.181-14.22.576-5.616.396 9.54,1.656-19.44,1.765-7.812.108-15.624.252-23.436.396-8.568-.216-17.136-.468-25.704-.72-5.328.108-10.656.216-16.02.36-1.872,1.332-3.744,2.699-5.616,4.068 0,0 .072-.613-.108.647-.216,1.296-.72,4.5-.72,4.5-1.332,1.584-2.664,3.168-3.996,4.788 0,0 .612-1.584 0-3.672-.612-2.125-1.908-2.053-2.412-4.789-.504-2.771.396-6.264.396-6.264-8.424-.107-16.848-.252-25.272-.396-6.264-.108-12.564-.216-18.864-.36-29.34.108 41.94,1.152-32.4.288 .108-1.728.216-3.491.324-5.256-2.988-2.304-6.228-3.384-9.864-3.239-3.636.18-7.488,1.512-11.772,4.104-1.473,84.026-2.949,168.05-4.425,252.11 .144.216 1.296.504 3.492.899s5.328.864 9.54,1.44c.612.756 1.26,1.548 1.908,2.34 3.096.108 5.58-.072 7.632-.576s3.492-1.26 4.464-2.34c-.18-2.304-.36-4.644-.576-6.983 8.136.107 16.308.216 24.48.359 12.564.36 25.128.72 37.692,1.116 10.44-.216 20.88-.468 31.32-.72v-4.429l2.808-10.691 2.376,6.264c-.108,2.7-.252,5.4-.396,8.101 34.164-.181 58.32-.072 73.836.359 15.336.433 11.772,2.196 17.928,2.232s13.572-1.692 18.756-2.017c5.184-.359 7.668.108 12.096,0 4.428-.18 9.144-.432 14.328-.899 0-2.196.216-4.032.612-5.544 .432-1.513 1.08-2.664 1.908-3.492-.612,1.944-.72,3.78-.324,5.544 .468,1.764 1.404,3.384 2.88,4.968 5.976.612 11.628,1.008 17.172,1.152 5.58.144 10.764.072 15.912-.288-.648-1.656-.864-3.204-.648-4.68 .252-1.477 1.548-2.124 1.908-4.068 .396-1.98.504-4.464.324-7.596 0,.611.108,1.476.324,2.628 .216,1.116.756,2.664.972,4.067 .18,1.44-.324,2.952.288,4.393 .648,1.439.792,3.06 3.528,4.104 2.736,1.008 7.992,1.836 12.708,2.017 4.716.216 12.168.216 15.264-.864s1.44-5.472 3.204-5.544c1.764-.036 3.779,4.392 7.309,5.256 3.527.828 8.855-.252 13.68-.288s9.719-.036 14.939,0c.936-1.224 1.764-2.592 2.557-4.104s1.223-5.004 2.23-4.969c1.01.072 3.602,4.068 3.816,5.257 .217,1.188-3.059.792-2.555,1.764 .539.972 1.332,3.6 5.723,4.104 4.465.469 11.232.108 20.701-1.188 .791-4.104 1.943-6.12 3.492-6.12s3.168,4.968 5.723,6.12c2.484,1.116-1.08,1.151 39.277,1.368l36.107-.721 40.896-.359c0,0-.686-3.78-.396-6.265 .324-2.483-1.477-5.363-.396-5.903 1.117-.54 3.924,4.896 6.408,3.672 2.52-1.188 4.824-6.624 4.824-6.624s2.736-2.376 4.031-1.116c1.297,1.296 1.584,3.313 1.98,6.66 .432,3.312-1.404,4.032-.396,6.624 1.008,2.556 4.428,3.672 4.428,3.672l40.5,1.476 16.453-.359c41.039.252 48.527-.648 48.527-.648s2.305,2.845 5.4,3.204c3.133.324 7.381-.036 13.031-1.151-1.043-83.16-2.088-166.319-3.168-249.517-1.727-.863-3.168-1.547-4.463-2.051-1.26-.469-2.305-.756-3.168-.865-.214-1.261-.429-2.521-.646-3.78z" fill-rule="evenodd"/>
 <path d="m672.578,8.643c-2.268-.359-4.752-.359-7.633,0-2.916.324-6.947,1.188-10.475,2.195v3.744l-19.477-.144-11.016-.647-11.016.324-10.117.215c0,0 1.117,9.504 1.008,12.564-.324,11.7-3.527-1.764-7.703,10.188-2.16,6.192-1.477,8.785-1.477,8.785s-5.328-2.341-7.092-6.769c-9.072-22.824-10.439,10.8-19.008,1.764-2.232-2.34-1.656-3.888-1.836-8.1s1.225-4.104 1.08-8.748c-.107-4.644-1.584-9.792-1.584-9.792s-15.625.72-33.877.576c-18.252-.18-21.455-.324-39.492-.684s-32.219-.217-32.219-.217c-36.072-.072-18.648-.107-22.104,0-3.529.072-8.281.54-11.557.792-3.24.216-5.76.72-7.848.647-.289.504-.289,1.656 0,3.529 .252,1.871 1.727,5.399 1.584,7.596-.18,2.16-1.008,3.852-2.557,5.256 .684-1.98 1.008-3.6.973-4.969-.072-1.403-.828-1.332-1.297-3.203-.432-1.944-.828-4.608-1.26-8.209-3.096-.035-6.553-.252-10.512-.575-3.924-.36-7.309-1.62-13.031-1.476-5.725.18-15.301,1.979-20.988,2.34-5.652.359-9.828.252-12.744-.289-3.42-.828-7.596-1.295-12.709-1.439-5.147-.145-12.6.288-17.819.576-5.184.288-7.164.828-13.032,1.152-5.904.359-15.804.936-21.96.899-6.12-.071-9.936-1.296-14.652-1.188-4.68.109-9.072.685-13.356,1.765-.252.792-.684,1.728-1.26,2.916s-1.908,1.944-2.232,4.104c-.288,2.16.54,7.199.324,8.748-.216,1.512-.72,1.619-1.584.287 .504-2.592.432-4.896-.324-6.984-.756-2.123-3.168-3.959-4.14-5.58-.936-1.619.288-3.096-1.584-4.067-1.872-1.008-3.96-1.548-9.54-1.764-5.652-.181-17.46.396-23.868.575-6.372.217-8.604.181-14.22.576-5.616.396 9.54,1.656-19.44,1.765-7.812.108-15.624.252-23.436.396-8.568-.216-17.136-.468-25.704-.72-5.328.108-10.656.216-16.02.36-1.872,1.332-3.744,2.699-5.616,4.068 0,0 .072-.613-.108.647-.216,1.296-.72,4.5-.72,4.5-1.332,1.584-2.664,3.168-3.996,4.788 0,0 .612-1.584 0-3.672-.612-2.125-1.908-2.053-2.412-4.789-.504-2.771.396-6.264.396-6.264-8.424-.107-16.848-.252-25.272-.396-6.264-.108-12.564-.216-18.864-.36-29.34.108 41.94,1.152-32.4.288 .108-1.728.216-3.491.324-5.256-2.988-2.304-6.228-3.384-9.864-3.239-3.636.18-7.488,1.512-11.772,4.104-1.473,84.026-2.949,168.05-4.425,252.11 .144.216 1.296.504 3.492.899s5.328.864 9.54,1.44c.612.756 1.26,1.548 1.908,2.34 3.096.108 5.58-.072 7.632-.576s3.492-1.26 4.464-2.34c-.18-2.304-.36-4.644-.576-6.983 8.136.107 16.308.216 24.48.359 12.564.36 25.128.72 37.692,1.116 10.44-.216 20.88-.468 31.32-.72v-4.429l2.808-10.691 2.376,6.264c-.108,2.7-.252,5.4-.396,8.101 34.164-.181 58.32-.072 73.836.359 15.336.433 11.772,2.196 17.928,2.232s13.572-1.692 18.756-2.017c5.184-.359 7.668.108 12.096,0 4.428-.18 9.144-.432 14.328-.899 0-2.196.216-4.032.612-5.544 .432-1.513 1.08-2.664 1.908-3.492-.612,1.944-.72,3.78-.324,5.544 .468,1.764 1.404,3.384 2.88,4.968 5.976.612 11.628,1.008 17.172,1.152 5.58.144 10.764.072 15.912-.288-.648-1.656-.864-3.204-.648-4.68 .252-1.477 1.548-2.124 1.908-4.068 .396-1.98.504-4.464.324-7.596 0,.611.108,1.476.324,2.628 .216,1.116.756,2.664.972,4.067 .18,1.44-.324,2.952.288,4.393 .648,1.439.792,3.06 3.528,4.104 2.736,1.008 7.992,1.836 12.708,2.017 4.716.216 12.168.216 15.264-.864s1.44-5.472 3.204-5.544c1.764-.036 3.779,4.392 7.309,5.256 3.527.828 8.855-.252 13.68-.288s9.719-.036 14.939,0c.936-1.224 1.764-2.592 2.557-4.104s1.223-5.004 2.23-4.969c1.01.072 3.602,4.068 3.816,5.257 .217,1.188-3.059.792-2.555,1.764 .539.972 1.332,3.6 5.723,4.104 4.465.469 11.232.108 20.701-1.188 .791-4.104 1.943-6.12 3.492-6.12s3.168,4.968 5.723,6.12c2.484,1.116-1.08,1.151 39.277,1.368l36.107-.721 40.896-.359c0,0-.686-3.78-.396-6.265 .324-2.483-1.477-5.363-.396-5.903 1.117-.54 3.924,4.896 6.408,3.672 2.52-1.188 4.824-6.624 4.824-6.624s2.736-2.376 4.031-1.116c1.297,1.296 1.584,3.313 1.98,6.66 .432,3.312-1.404,4.032-.396,6.624 1.008,2.556 4.428,3.672 4.428,3.672l40.5,1.476 16.453-.359c41.039.252 48.527-.648 48.527-.648s2.305,2.845 5.4,3.204c3.133.324 7.381-.036 13.031-1.151-1.043-83.16-2.088-166.319-3.168-249.517-1.727-.863-3.168-1.547-4.463-2.051-1.26-.469-2.305-.756-3.168-.865-.214-1.261-.429-2.521-.646-3.78z" fill="none" stroke="#000" stroke-miterlimit="10" stroke-width=".036"/>
 <path d="m680.57,15.662c.072,32.364.287,68.328.791,110.125 .396,41.795 1.045,87.047 1.945,138.274-3.385,1.225-6.445,1.908-9.324,1.765s-5.473-.972-7.775-2.484l-10.262-252.504c1.332,1.08 3.385,2.088 6.014,3.025 2.555.863 6.479,2.159 9.684,2.483 3.058.253 6.084.072 8.927-.684z" fill="url(#d)" fill-rule="evenodd" stroke="#000" stroke-miterlimit="10" stroke-width=".036"/>
 <path d="m671.967,9.471 1.188,3.564 5.076,1.907c-3.816,1.009-7.309,1.188-10.764.54-3.457-.72-6.732-2.268-9.828-4.645 2.736-1.295 5.363-1.979 7.74-2.195 2.447-.288 4.463.037 6.588.829z" fill="#412318" fill-rule="evenodd" stroke="#000" stroke-miterlimit="10" stroke-width=".036"/>
 <path d="m523.43,15.123 42.301-.108 .971,5.616 .254,6.516-1.477,7.416 2.088,6.984 4.572,2.375 3.131-2.051 3.781-7.849 2.482-2.196 2.125,1.116 1.439,2.052 1.801,3.637 2.051,3.636 4.645,4.248 1.621,1.512 .898-7.56 3.24-7.236 3.637-.756 1.008-1.296 .324-7.345-.469-4.355-.252-4.464 9.613-.324 14.939-.252 15.191.685 11.412.359 11.34,247.319-27.756-.468h-22.859l-18.469.756-28.477-.756-11.23-2.196-.396-6.624-.828-7.38-1.188-2.195-5.221,1.439-4.428,6.66-5.615-4.788-1.98,2.196 .396,10.691c-41.148.973-69.266,1.584-86.148,1.836-16.596.181-9.359-.504-13.428-.54-4.285-.107-8.857.217-11.629-.287-2.809-.685-3.672-2.16-5.076-3.313-1.475-1.224-2.484-3.384-3.6-3.563-1.26-.217-2.627.972-3.564,2.195-.971,1.152-1.619,2.664-2.088,4.681-4.211.359-7.668.684-10.764.827-3.096.072-5.58.252-7.451,0-1.908-.252-3.385-.899-3.889-1.655-.611-1.009.18-2.521.287-3.564-.035-1.152.613-1.692 0-2.736-.719-1.151-2.986-3.312-3.887-3.563-.936-.252-1.008.936-1.477,1.908-.539.828-.863,1.979-1.512,3.312-.684,1.26-1.619,2.664-2.664,4.356-3.203.18-6.912.18-11.125.288-4.428-.036-11.016.611-14.326,0-3.35-.828-3.42-2.809-5.076-3.853-1.766-1.08-3.961-2.088-5.076-1.908-1.261.108-1.117,2.089-1.801,3.024-.648.792-.324,1.836-2.088,2.448-1.872.647-4.752,1.296-8.64,1.403-3.996-.071-11.34-.899-14.652-1.655-3.348-.864-3.888-1.225-5.076-3.024-1.188-1.908-1.512-5.76-2.088-7.956-.648-2.304-1.476-3.852-2.088-5.184 .144,2.592 0,4.824-.288,6.84-.396,1.908-1.224,3.276-1.8,4.932-.684,1.692-1.152,3.204-1.8,4.933-5.868.288-11.196.432-16.128.288-4.968-.181-9.396-.505-13.428-1.116-1.188-1.944-2.124-3.672-2.664-5.473-.648-1.8-.9-3.491-.9-5.22-1.692,1.548-2.736,3.061-3.276,4.68-.576,1.62-.576,3.169 0,4.933-6.372-.36-12.456-.468-18.54-.288-6.048.18-13.104.9-17.604,1.368-4.428.468-5.688,1.403-8.964,1.368-3.24-.036-7.056-1.188-10.44-1.62-3.348-.468-3.852-1.008-9.54-1.116-5.688-.072 3.96.54-24.444.54l-20.052-.36-24.084-.756-1.584-7.74-3.636-7.344-1.98,7.344-1.62,8.496-20.88,1.08h-3.204c-28.728,0 .612-.899-68.58-1.26l-.9-240.696 23.364,1.045 38.916-.396h14.04l-.396,5.184 2.376,5.509-.396,4.788 5.22-3.313 2.016-5.148 1.188-2.951 5.616-3.672c25.344.359 43.74.468 56.016.324 12.096-.217 10.548-.864 16.74-1.369 6.192-.575 13.5-1.403 20.268-1.655 6.66-.323 14.256-.323 19.728-.288 5.292-.072 9.612-.576 12.528,0 2.808.504 3.564,1.512 4.788,3.023 1.152,1.332 1.44,3.529 2.376,5.473 .828,1.908 2.052,4.284 2.7,6.3 .504,2.017.432,4.681.9,5.509 .504.647 1.656,0 2.088-1.369 .18-1.547-.288-5.039 0-7.127 .252-2.088.9-3.601 1.8-5.221 .828-1.8 1.044-3.672 3.564-4.645 2.34-.936 6.12-1.26 11.34-1.115 5.184-.036 11.664,1.26 20.016,1.115 8.424-.252 20.592-2.231 29.7-2.483 8.856-.323 15.876.181 23.579.54 7.74.252 15.301,1.368 22.105,1.116 6.551-.396 12.887-2.845 17.604-3.024 4.607-.287 6.516,1.512 10.439,1.908 3.924.359 8.064.54 12.852.54 .686,3.349 1.332,5.868 1.801,7.956 .432,1.943.863,2.628.9,4.141-.107,1.512-.469,2.916-1.225,4.644 2.557-1.332 4.104-2.664 4.789-4.392 .611-1.765-.613-3.637-.9-5.761-.361-2.124-.756-4.356-1.188-6.84 4.535-.612 9.07-.937 14.039-1.116 4.896-.252.252-.072 15.229,0 15.123.07 39.314.177 74.127.466z" fill="url(#c)" fill-rule="evenodd" stroke="#000" stroke-miterlimit="10" stroke-width=".036"/>
 <path d="m33.218,12.207c.072,69.66.18,124.344.324,166.967 .216,42.408.36,70.416.576,85.824-2.664-1.764-5.256-2.952-8.064-3.564-2.7-.72-5.436-.54-8.352-.287-2.844.144-5.832.827-8.964,1.655l4.5-249.767c3.276-1.693 6.012-2.881 8.352-3.564 2.34-.756 3.816-1.045 5.688-.576 1.944.503 3.924,1.476 5.94,3.312z" fill="url(#b)" fill-rule="evenodd" stroke="#000" stroke-miterlimit="10" stroke-width=".036"/>
 <path d="m34.73,264.71c-2.736-1.656-5.868-2.7-9.252-3.276-3.384-.611-8.172-.756-11.052-.287-2.736.323-4.68,1.188-5.688,2.447 1.512.54 3.312,1.008 5.4,1.404 2.196.288 4.68.684 7.452.792l3.564,2.196c2.196.323 4.14.288 5.688-.252 1.692-.54 2.844-1.547 3.888-3.024z" fill="#412318" fill-rule="evenodd" stroke="#000" stroke-miterlimit="10" stroke-width=".036"/>
 <path d="m672.578,8.643c-2.268-.359-4.752-.359-7.633,0-2.916.324-6.947,1.188-10.475,2.195v3.744l-19.477-.144-11.016-.647-11.016.324-10.117.215c0,0 1.117,9.504 1.008,12.564-.324,11.7-3.527-1.764-7.703,10.188-2.16,6.192-1.477,8.785-1.477,8.785s-5.328-2.341-7.092-6.769c-9.072-22.824-10.439,10.8-19.008,1.764-2.232-2.34-1.656-3.888-1.836-8.1s1.225-4.104 1.08-8.748c-.107-4.644-1.584-9.792-1.584-9.792s-15.625.72-33.877.576c-18.252-.18-21.455-.324-39.492-.684s-32.219-.217-32.219-.217c-36.072-.072-18.648-.107-22.104,0-3.529.072-8.281.54-11.557.792-3.24.216-5.76.72-7.848.647-.289.504-.289,1.656 0,3.529 .252,1.871 1.727,5.399 1.584,7.596-.18,2.16-1.008,3.852-2.557,5.256 .684-1.98 1.008-3.6.973-4.969-.072-1.403-.828-1.332-1.297-3.203-.432-1.944-.828-4.608-1.26-8.209-3.096-.035-6.553-.252-10.512-.575-3.924-.36-7.309-1.62-13.031-1.476-5.725.18-15.301,1.979-20.988,2.34-5.652.359-9.828.252-12.744-.289-3.42-.828-7.596-1.295-12.709-1.439-5.147-.145-12.6.288-17.819.576-5.184.288-7.164.828-13.032,1.152-5.904.359-15.804.936-21.96.899-6.12-.071-9.936-1.296-14.652-1.188-4.68.109-9.072.685-13.356,1.765-.252.792-.684,1.728-1.26,2.916s-1.908,1.944-2.232,4.104c-.288,2.16.54,7.199.324,8.748-.216,1.512-.72,1.619-1.584.287 .504-2.592.432-4.896-.324-6.984-.756-2.123-3.168-3.959-4.14-5.58-.936-1.619.288-3.096-1.584-4.067-1.872-1.008-3.96-1.548-9.54-1.764-5.652-.181-17.46.396-23.868.575-6.372.217-8.604.181-14.22.576-5.616.396 9.54,1.656-19.44,1.765-7.812.108-15.624.252-23.436.396-8.568-.216-17.136-.468-25.704-.72-5.328.108-10.656.216-16.02.36-1.872,1.332-3.744,2.699-5.616,4.068 0,0 .072-.613-.108.647-.216,1.296-.72,4.5-.72,4.5-1.332,1.584-2.664,3.168-3.996,4.788 0,0 .612-1.584 0-3.672-.612-2.125-1.908-2.053-2.412-4.789-.504-2.771.396-6.264.396-6.264-8.424-.107-16.848-.252-25.272-.396-6.264-.108-12.564-.216-18.864-.36-29.34.108 41.94,1.152-32.4.288 .108-1.728.216-3.491.324-5.256-2.988-2.304-6.228-3.384-9.864-3.239-3.636.18-7.488,1.512-11.772,4.104-1.473,84.026-2.949,168.05-4.425,252.11 .144.216 1.296.504 3.492.899s5.328.864 9.54,1.44c.612.756 1.26,1.548 1.908,2.34 3.096.108 5.58-.072 7.632-.576s3.492-1.26 4.464-2.34c-.18-2.304-.36-4.644-.576-6.983 8.136.107 16.308.216 24.48.359 12.564.36 25.128.72 37.692,1.116 10.44-.216 20.88-.468 31.32-.72v-4.429l2.808-10.691 2.376,6.264c-.108,2.7-.252,5.4-.396,8.101 34.164-.181 58.32-.072 73.836.359 15.336.433 11.772,2.196 17.928,2.232s13.572-1.692 18.756-2.017c5.184-.359 7.668.108 12.096,0 4.428-.18 9.144-.432 14.328-.899 0-2.196.216-4.032.612-5.544 .432-1.513 1.08-2.664 1.908-3.492-.612,1.944-.72,3.78-.324,5.544 .468,1.764 1.404,3.384 2.88,4.968 5.976.612 11.628,1.008 17.172,1.152 5.58.144 10.764.072 15.912-.288-.648-1.656-.864-3.204-.648-4.68 .252-1.477 1.548-2.124 1.908-4.068 .396-1.98.504-4.464.324-7.596 0,.611.108,1.476.324,2.628 .216,1.116.756,2.664.972,4.067 .18,1.44-.324,2.952.288,4.393 .648,1.439.792,3.06 3.528,4.104 2.736,1.008 7.992,1.836 12.708,2.017 4.716.216 12.168.216 15.264-.864s1.44-5.472 3.204-5.544c1.764-.036 3.779,4.392 7.309,5.256 3.527.828 8.855-.252 13.68-.288s9.719-.036 14.939,0c.936-1.224 1.764-2.592 2.557-4.104s1.223-5.004 2.23-4.969c1.01.072 3.602,4.068 3.816,5.257 .217,1.188-3.059.792-2.555,1.764 .539.972 1.332,3.6 5.723,4.104 4.465.469 11.232.108 20.701-1.188 .791-4.104 1.943-6.12 3.492-6.12s3.168,4.968 5.723,6.12c2.484,1.116-1.08,1.151 39.277,1.368l36.107-.721 40.896-.359c0,0-.686-3.78-.396-6.265 .324-2.483-1.477-5.363-.396-5.903 1.117-.54 3.924,4.896 6.408,3.672 2.52-1.188 4.824-6.624 4.824-6.624s2.736-2.376 4.031-1.116c1.297,1.296 1.584,3.313 1.98,6.66 .432,3.312-1.404,4.032-.396,6.624 1.008,2.556 4.428,3.672 4.428,3.672l40.5,1.476 16.453-.359c41.039.252 48.527-.648 48.527-.648s2.305,2.845 5.4,3.204c3.133.324 7.381-.036 13.031-1.151-1.043-83.16-2.088-166.319-3.168-249.517-1.727-.863-3.168-1.547-4.463-2.051-1.26-.469-2.305-.756-3.168-.865-.214-1.261-.429-2.521-.646-3.78zm7.02,7.271c-3.24.648-6.336.828-9.539.612-3.24-.252-7.309-1.224-9.576-2.052-2.232-.828-3.457-1.801-3.816-2.916 .18,7.416.684,21.096 1.619,41.76 .9,20.771 2.305,46.368 3.816,81.504 1.477,35.279 3.168,77.184 5.076,127.979 2.053,1.116 4.32,1.692 6.984,1.729 2.699.071 5.615-.396 8.928-1.44-1.152-82.368-2.305-164.772-3.492-247.176zm-14.364,245.304c-113.904-.576-73.439.756-90.684,0 0,0-9.324.216-13.248-1.08-3.889-1.296-1.512-.647-2.412-4.067s-.072-6.084-1.189-9.576-3.203-4.428-3.203-4.428-4.932,1.476-7.236,3.708c-2.303,2.195-2.016,5.147-2.016,5.147s-4.68-5.436-6.805-4.788c-2.088.648-1.115,3.96-1.619,7.38-.469,3.385-.396,6.265-.396,6.265-17.244-.756-46.908,0-46.908,0-12.707.216-25.416.468-38.123.72-39.996-.18-22.896,1.08-25.74-.036-2.881-1.152-5.111-5.688-6.984-6.731-1.871-1.009-3.023-.576-4.141.575-1.115,1.188-1.943,3.313-2.555,6.444-4.537.396-8.389.576-11.771.576-3.35,0-6.697-.036-8.244-.576s-1.08-1.908-.973-2.628 1.801-.756 1.584-1.764-1.729-3.24-2.844-4.356c-1.152-1.152-2.736-2.736-3.816-2.34s-1.764,3.023-2.557,4.644c-.828,1.62-1.547,3.276-2.23,4.969-6.084-.181-11.197-.288-15.59-.288s-7.811.828-10.512.288c-2.627-.54-3.779-2.412-5.398-3.492-1.584-1.08-2.988-2.809-4.141-2.916-1.116-.108-1.908,1.26-2.52,2.34-.648,1.08 1.115,3.204-1.297,4.068-2.412.899-8.892,1.332-13.032,1.188-4.14-.18-8.82-1.116-11.52-2.052s-3.564-1.368-4.464-3.492c-.9-2.16-.216-6.984-.972-9.36-.72-2.34-1.872-3.888-3.492-4.68 .54,3.061.648,5.652.324,7.884-.324,2.269-1.62,3.744-2.232,5.544-.576,1.836-1.008,3.564-1.26,5.292-.648.036-3.276.036-7.956,0-4.716-.071-11.268-.144-20.052-.323-1.44-1.513-2.484-3.24-3.168-5.257s-1.008-4.212-.972-6.695c-1.332,1.08-2.376,2.412-3.168,4.067-.792,1.692-1.332,3.601-1.584,5.868-12.024-.072-21.6.108-29.268.576-7.632.432-9.18,1.98-14.796,1.944-5.58-.072 6.048-1.548-25.272-2.053-7.164-.287-14.328-.575-21.492-.899h-28.476c-4.284-.108-8.568-.252-12.852-.396-.504-2.556-1.044-5.147-1.584-7.739-1.476-2.305-2.952-4.645-4.428-6.984 0,0-2.088,4.5-3.204,8.1s-1.188,7.021-1.188,7.021c-7.488.468-14.976.972-22.464,1.476-31.788-.504 14.652-1.439-68.364-1.332-.396-79.56-.828-159.119-1.26-238.716l46.728,1.297c9.36-.217 18.72-.469 28.116-.721 0,0-1.116,3.385-.828,5.904 .324,2.484 1.512,1.26 2.016,4.032s-.9,3.96 0,7.021c.9,3.023 3.6,5.147 3.6,5.147s-1.584-4.608-.396-7.38c1.224-2.771 3.6-1.116 5.22-3.672 1.62-2.592-.792-4.141 1.188-6.625 2.016-2.483 6.84-3.311 6.84-3.311h32.508c10.512.107 19.872-.037 28.512-.505 8.676-.504 16.812-1.836 22.896-2.34s7.02-.504 13.284-.576c6.336-.108 19.08-.396 24.192,0 5.076.396 4.824,1.476 6.048,2.341 1.224.827.36.936 1.26,2.627 .936,1.656 3.348,4.824 4.14,7.309 .792,2.447-.144,5.832.648,7.271 .828,1.44 3.42,2.16 4.14,1.188 .684-1.009-.216-4.572 0-7.021s.468-5.615 1.26-7.596c.792-1.943 1.944-3.275 3.492-4.104 4.752-.864 8.82-1.332 12.42-1.44 3.564-.108 3.492.756 8.892.864 5.508.107 15.696.144 23.544-.288 7.884-.433 17.424-2.052 23.22-2.341 5.76-.287 6.516.145 11.16.576 4.645.469 10.98,1.836 16.523,2.053 5.58.216 11.197-.324 16.561-.864 5.328-.54 11.447-2.231 15.264-2.34 3.779-.108 4.176,1.26 7.309,1.764 3.168.468 6.912.864 11.447,1.152 1.656,3.132 2.592,6.12 2.881,9.071 .252,2.916-.145,5.725-1.297,8.461 2.953-2.881 4.932-5.185 6.049-7.021 1.115-1.8.9-1.979.648-3.78-.252-1.836-1.01-4.14-2.232-7.02 .971-.504 3.492-.864 7.631-1.152 4.141-.324-3.527-.9 34.164-.9l27.072-.107 39.996.792 18.684-.323 16.885-.252c0,0 1.043,5.075 1.008,10.151-.072,5.04-1.691,5.651-1.225,10.116 .434,4.428.252,5.615 3.061,7.632 12.779,9.071 8.279-24.624 19.764-2.124 2.701,5.292 8.676,9.107 8.676,9.107s-.719-4.428 1.225-11.123c3.348-11.34 7.848-1.008 7.381-12.205-.145-2.987-1.152-11.195-1.152-11.195s5.688-.288 18.611-.792c12.924-.468 31.969,1.224 31.969,1.224 3.56,81.647 7.162,163.294 10.761,244.978zm6.084-251.136c.396,1.26.828,2.521 1.26,3.816 1.477.359 2.951.756 4.465,1.152-3.42.18-6.553,0-9.541-.576-2.988-.611-5.688-1.549-8.279-2.916 2.664-.936 4.967-1.512 6.984-1.764 2.051-.251 3.707-.144 5.111.288zm-661.788,253.584c1.764-.828 3.96-1.296 6.66-1.44 2.736-.18 6.66.072 9.576.576 2.88.469 5.364,1.26 7.632,2.34-1.296.9-2.664,1.513-4.14,1.729-1.512.252-3.06.144-4.788-.288-1.044-.684-2.088-1.368-3.168-2.052l-11.772-.865zm23.868-.864c-.432-24.012-.756-56.16-.972-98.172-.216-42.155-.324-92.015-.324-152.208-.756-1.907-2.628-2.771-5.724-2.627s-7.272,1.295-12.708,3.492c-1.368,82.655-2.736,165.347-4.14,248.039 4.176-.937 7.812-1.404 11.124-1.44 3.312-.071 6.444.648 8.604,1.152 2.124.504 3.492,1.08 4.14,1.764z" fill-rule="evenodd" stroke="#000" stroke-miterlimit="10" stroke-width=".036"/>
</svg>
